<?xml version="1.0" encoding="utf-8"?>
<!-- Generator: Adobe Illustrator 28.0.0, SVG Export Plug-In . SVG Version: 6.00 Build 0)  -->
<svg version="1.1" id="Capa_1" xmlns="http://www.w3.org/2000/svg" xmlns:xlink="http://www.w3.org/1999/xlink" x="0px" y="0px"
	 viewBox="0 0 1080 1080" style="enable-background:new 0 0 1080 1080;" xml:space="preserve">
<style type="text/css">
	.st0{fill-rule:evenodd;clip-rule:evenodd;fill:#585A5D;}
	.st1{fill:#639940;}
	
		.st2{opacity:0.21;clip-path:url(#SVGID_00000143601165365627643420000013809879932027468432_);fill:url(#SVGID_00000090274440461175173380000001963449086310976654_);}
	
		.st3{opacity:0.77;clip-path:url(#SVGID_00000119834907661460704080000013072044739083333541_);fill:url(#SVGID_00000148654661724482256130000005875776054043230124_);}
	.st4{fill:#585A5D;}
	
		.st5{opacity:0.15;clip-path:url(#SVGID_00000073716175561332412330000002337551600832229815_);fill:url(#SVGID_00000006708130995168223620000010664054242958208935_);}
	
		.st6{opacity:0.77;clip-path:url(#SVGID_00000068673457127639330890000005985608104432418947_);fill:url(#SVGID_00000097494663862014984750000015456721015991171479_);}
	.st7{opacity:0.2;fill:url(#SVGID_00000129182108251975006540000002304433614245146026_);}
	.st8{opacity:0.29;fill:url(#SVGID_00000126283094526235204050000009905679369060920476_);}
	
		.st9{opacity:0.38;clip-path:url(#SVGID_00000056392506993635781770000017350254308757885577_);fill:url(#SVGID_00000153701201456159891700000006766071450816185993_);}
	
		.st10{opacity:0.15;clip-path:url(#SVGID_00000144334956363150147900000006184351899837947265_);fill:url(#SVGID_00000183965858893940794390000000390747647745967744_);}
	
		.st11{opacity:0.29;clip-path:url(#SVGID_00000168091857065765861210000006963239816851360660_);fill:url(#SVGID_00000098192571820894654650000012647992041327907753_);}
</style>
<g>
	<path class="st1" d="M518.16,653.8V340.37H277.4c-56.04,0-101.47,45.43-101.47,101.47v110.5c0,56.04,45.43,101.46,101.47,101.46
		h29.72c0,0,0,86.93,0,110.11c0,23.18,6.52,111.56,120.25,111.56c61.21,0,70.95-16.24,70.95-48.83c0-41.91-27.31-30.42-27.31-62.01
		c0-46.36,0-110.83,0-110.83H518.16z"/>
	<path class="st4" d="M904.07,497.09c0-28.6-14.33-53.83-36.17-68.99V237.53c0-12.21-6.75-23.42-17.53-29.15
		c-10.79-5.72-23.83-5.02-33.96,1.82L640.42,329.35c-8.34,5.65-18.09,8.63-28.18,8.63h-55.27v66h55.27c23.33,0,45.87-6.92,65.17-20
		l124.48-84.27v394.75l-113.11-76.58c-26.75-18.1-57.96-27.68-90.25-27.68h-41.55v66h41.55c19.06,0,37.47,5.65,53.27,16.33
		l164.6,111.44c5.56,3.78,12.01,5.68,18.49,5.68c5.29,0,10.61-1.28,15.47-3.85c10.78-5.73,17.53-16.94,17.53-29.15V566.08
		C889.74,550.92,904.07,525.69,904.07,497.09z"/>
	<g>
		<defs>
			<path id="SVGID_00000058565229760106292020000003614662446104120198_" d="M904.07,497.09c0-28.6-14.33-53.83-36.17-68.99V237.53
				c0-12.21-6.75-23.42-17.53-29.15c-10.79-5.72-23.83-5.02-33.96,1.82L640.42,329.35c-8.34,5.65-18.09,8.63-28.18,8.63h-55.27v66
				v186.21v66h41.55c19.06,0,37.47,5.65,53.27,16.33l164.6,111.44c5.56,3.78,12.01,5.68,18.49,5.68c5.29,0,10.61-1.28,15.47-3.85
				c10.78-5.73,17.53-16.94,17.53-29.15V566.08C889.74,550.92,904.07,525.69,904.07,497.09z"/>
		</defs>
		<clipPath id="SVGID_00000105419566030911252720000010267141167158212509_">
			<use xlink:href="#SVGID_00000058565229760106292020000003614662446104120198_"  style="overflow:visible;"/>
		</clipPath>
		
			<linearGradient id="SVGID_00000139995591275487027480000002947523379023283630_" gradientUnits="userSpaceOnUse" x1="-3732.3259" y1="25654.7227" x2="-3115.5354" y2="25654.7227" gradientTransform="matrix(-1 0 0 -1 -2828.2576 26360)">
			<stop  offset="0" style="stop-color:#639940"/>
			<stop  offset="1" style="stop-color:#FFFFFF;stop-opacity:0"/>
		</linearGradient>
		
			<path style="opacity:0.29;clip-path:url(#SVGID_00000105419566030911252720000010267141167158212509_);fill:url(#SVGID_00000139995591275487027480000002947523379023283630_);" d="
			M904.07,705.28C851.09,822.74,732.9,904.54,595.67,904.54c-137.23,0-255.42-81.8-308.4-199.26
			c52.97-117.47,171.16-199.26,308.4-199.26C732.9,506.01,851.09,587.81,904.07,705.28z"/>
	</g>
</g>
</svg>
