<?xml version="1.0" encoding="utf-8"?>
<!-- Generator: Adobe Illustrator 28.0.0, SVG Export Plug-In . SVG Version: 6.00 Build 0)  -->
<svg version="1.1" id="Capa_1" xmlns="http://www.w3.org/2000/svg" xmlns:xlink="http://www.w3.org/1999/xlink" x="0px" y="0px"
	 viewBox="0 0 1080 1080" style="enable-background:new 0 0 1080 1080;" xml:space="preserve">
<style type="text/css">
	.st0{fill-rule:evenodd;clip-rule:evenodd;fill:#585A5D;}
	.st1{fill:#639940;}
	
		.st2{opacity:0.21;clip-path:url(#SVGID_00000098187826401305706910000003400231493634987684_);fill:url(#SVGID_00000107559684745062396740000011058526285092795798_);}
	
		.st3{opacity:0.77;clip-path:url(#SVGID_00000165209274673301950280000013414468108994119325_);fill:url(#SVGID_00000155833538208839457130000006856778340582246802_);}
	.st4{fill:#585A5D;}
	
		.st5{opacity:0.15;clip-path:url(#SVGID_00000139986384123259933920000015625378452268327056_);fill:url(#SVGID_00000050630422705962637310000010119992136438759327_);}
	
		.st6{opacity:0.77;clip-path:url(#SVGID_00000183222722724513414360000000190528451170640307_);fill:url(#SVGID_00000104679233587041698400000006114846631771584646_);}
	.st7{opacity:0.2;fill:url(#SVGID_00000100356479089185070300000000026402206980299192_);}
	.st8{opacity:0.29;fill:url(#SVGID_00000180341519809632241580000001258931465842038155_);}
	
		.st9{opacity:0.38;clip-path:url(#SVGID_00000036965251914341323240000001621667697726797741_);fill:url(#SVGID_00000057147314114777115200000010289557290421274753_);}
	
		.st10{opacity:0.15;clip-path:url(#SVGID_00000043446323163422470840000010373700799528586127_);fill:url(#SVGID_00000085234007032718872330000012722233119811561384_);}
	
		.st11{opacity:0.29;clip-path:url(#SVGID_00000129179897838240251620000001339993774590703802_);fill:url(#SVGID_00000095335485029782708780000018103172154760644485_);}
</style>
<g>
	<g>
		<path class="st1" d="M855.14,323.92c-51.27-51.27-122.11-82.96-200.36-82.96h-13.25c-8.09,0-16.1,0.34-24.02,1.01
			c-25.91,2.19-40.71,30.67-27.75,53.21c6.44,11.19,18.36,17.78,31.13,17.78c1.02,0,2.04-0.04,3.07-0.13
			c5.8-0.48,11.66-0.73,17.57-0.73h13.25c118.76,0,215.04,98.02,212.17,217.36c-2.78,115.84-100.29,207.05-216.17,207.05h-9.26
			c-5.91,0-11.77-0.25-17.57-0.73c-1.03-0.09-2.05-0.13-3.07-0.13c-12.76,0-24.69,6.59-31.12,17.78
			c-12.96,22.54,1.84,51.02,27.75,53.21c7.92,0.67,15.93,1.01,24.02,1.01h8.22c156.97,0,289.49-128.42,288.4-285.38
			C937.62,444.83,905.97,374.75,855.14,323.92z"/>
		<g>
			<path class="st4" d="M562.1,801.89c-10.55-20.14-10.08-43.93,1.25-63.63c0.35-0.61,0.79-1.14,1.16-1.74H425.22
				c-118.76,0-215.04-98.02-212.17-217.36c2.78-115.84,100.29-207.05,216.17-207.05h135.3c-0.37-0.59-0.81-1.13-1.16-1.74
				c-11.33-19.7-11.8-43.49-1.25-63.63c1.06-2.01,2.27-3.91,3.5-5.78H430.25c-156.97,0-289.49,128.42-288.4,285.38
				c0.48,69.71,26.18,133.44,68.38,182.55l-37.72,96.39c-8.22,21.02,13.76,41.13,33.97,31.08l105.27-52.35
				c34.75,15.2,73.12,23.64,113.48,23.64H565.6C564.37,805.79,563.16,803.9,562.1,801.89z"/>
		</g>
	</g>
	<g>
		<defs>
			<path id="SVGID_00000034792135889965270880000015957027956750100614_" d="M654.81,807.66H425.19
				c-155.84,0-283.35-127.51-283.35-283.35v0c0-155.84,127.51-283.35,283.35-283.35h229.62c155.84,0,283.35,127.51,283.35,283.35v0
				C938.16,680.16,810.65,807.66,654.81,807.66z"/>
		</defs>
		<clipPath id="SVGID_00000002357586145951365610000010058902564347881094_">
			<use xlink:href="#SVGID_00000034792135889965270880000015957027956750100614_"  style="overflow:visible;"/>
		</clipPath>
		
			<linearGradient id="SVGID_00000106114071439937073830000012594293947153245592_" gradientUnits="userSpaceOnUse" x1="-11475.2676" y1="9129.5869" x2="-10801.7285" y2="9129.5869" gradientTransform="matrix(0.9938 -0.1108 0.1108 0.9938 10487.1875 -9532.9512)">
			<stop  offset="0" style="stop-color:#639940"/>
			<stop  offset="1" style="stop-color:#FFFFFF;stop-opacity:0"/>
		</linearGradient>
		
			<path style="opacity:0.38;clip-path:url(#SVGID_00000002357586145951365610000010058902564347881094_);fill:url(#SVGID_00000106114071439937073830000012594293947153245592_);" d="
			M90.47,780.18c43.28-133.89,161.66-236.96,310.59-253.57c148.93-16.6,287.1,57.87,358.8,178.95
			c20.96,188.07-154.62,300.06-303.56,316.66C307.37,1038.83,107.66,934.46,90.47,780.18z"/>
	</g>
	<path class="st1" d="M612.74,457.42l-106.96-61.76c-7.88-4.55-17.74,1.14-17.74,10.24v24.68c0,8.19-6.64,14.83-14.83,14.83h-47.69
		c-8.53,0-16.16,6.09-17.28,14.54c-1.35,10.23,6.67,19.06,16.65,19.06h63.85c10.57,0,18.93,9.89,16.31,20.87
		c-1.81,7.57-8.85,12.73-16.64,12.73h-0.38h-44.63c-8.53,0-16.16,6.09-17.28,14.54c-1.35,10.23,6.67,19.06,16.65,19.06h45.26l0,0
		h42.39c8.53,0,16.16,6.09,17.28,14.54c1.35,10.23-6.67,19.06-16.65,19.06h-42.31c0,0,0,0-0.01,0h-74.58
		c-9.24,0-16.8,7.56-16.8,16.8l0,0c0,9.24,7.56,16.8,16.8,16.8h59.05c8.19,0,14.83,6.64,14.83,14.83v24.68
		c0,9.1,9.85,14.79,17.74,10.24l106.96-61.76l106.96-61.76c7.88-4.55,7.88-15.93,0-20.48L612.74,457.42z"/>
</g>
</svg>
