<?xml version="1.0" encoding="utf-8"?>
<!-- Generator: Adobe Illustrator 28.0.0, SVG Export Plug-In . SVG Version: 6.00 Build 0)  -->
<svg version="1.1" id="Capa_1" xmlns="http://www.w3.org/2000/svg" xmlns:xlink="http://www.w3.org/1999/xlink" x="0px" y="0px"
	 viewBox="0 0 1080 1080" style="enable-background:new 0 0 1080 1080;" xml:space="preserve">
<style type="text/css">
	.st0{fill-rule:evenodd;clip-rule:evenodd;fill:#585A5D;}
	.st1{fill:#639940;}
	
		.st2{opacity:0.21;clip-path:url(#SVGID_00000122706603534232811280000014387674585573659014_);fill:url(#SVGID_00000085954145952876266880000013682479868381099434_);}
	
		.st3{opacity:0.77;clip-path:url(#SVGID_00000181078791587723171860000017534984513382408612_);fill:url(#SVGID_00000148655955732074333250000006409106734099999637_);}
	.st4{fill:#585A5D;}
	
		.st5{opacity:0.15;clip-path:url(#SVGID_00000085938049453691321720000009110607307104993983_);fill:url(#SVGID_00000116197575673313207440000012694224896714449550_);}
	
		.st6{opacity:0.77;clip-path:url(#SVGID_00000142873246429328039270000008147946558333407616_);fill:url(#SVGID_00000066517226238365779920000014763498228441889421_);}
	.st7{opacity:0.2;fill:url(#SVGID_00000057120829367071442980000007968413548458326921_);}
	.st8{opacity:0.29;fill:url(#SVGID_00000013183080568291502220000007836204695741340090_);}
	
		.st9{opacity:0.38;clip-path:url(#SVGID_00000058573996599142182560000011472968949278359475_);fill:url(#SVGID_00000087376027386894496810000012931122976417114247_);}
	
		.st10{opacity:0.15;clip-path:url(#SVGID_00000078030601692419102810000006174539093585768622_);fill:url(#SVGID_00000010992233878155587180000008695925381771994559_);}
	
		.st11{opacity:0.29;clip-path:url(#SVGID_00000077323478362586479730000000250092921791538568_);fill:url(#SVGID_00000143575459362786786580000007490853457866283154_);}
</style>
<g>
	<g>
		<defs>
			<path id="SVGID_00000007429388147551739270000014500884578958862771_" d="M539.61,161.77L132.95,445.59v472.32h713.9
				c56.19,0,101.75-45.55,101.75-101.75V456.85c0-11.49-5.7-22.23-15.21-28.66L539.61,161.77z"/>
		</defs>
		<clipPath id="SVGID_00000045608623870106199840000002535501211283841688_">
			<use xlink:href="#SVGID_00000007429388147551739270000014500884578958862771_"  style="overflow:visible;"/>
		</clipPath>
		
			<linearGradient id="SVGID_00000122691363280375425770000009374759558463854730_" gradientUnits="userSpaceOnUse" x1="2124.8003" y1="25963.1113" x2="3183.8513" y2="25963.1113" gradientTransform="matrix(-0.9427 0.3335 -0.3335 -0.9427 12191.1162 24425.9336)">
			<stop  offset="0" style="stop-color:#639940"/>
			<stop  offset="1" style="stop-color:#FFFFFF;stop-opacity:0"/>
		</linearGradient>
		
			<path style="opacity:0.77;clip-path:url(#SVGID_00000045608623870106199840000002535501211283841688_);fill:url(#SVGID_00000122691363280375425770000009374759558463854730_);" d="
			M1528.4,658.22c-18.48,220.48-162.95,420.57-385.09,499.16c-222.14,78.59-460.3,13.87-613.32-145.93
			c18.48-220.48,162.95-420.58,385.09-499.17C1137.21,433.69,1375.38,498.41,1528.4,658.22z"/>
	</g>
	<g>
		<path class="st4" d="M536.27,237.95h3.27h3.24h107.11l-93.29-63.57c-10.2-6.95-23.61-6.98-33.85-0.07l-94.26,63.64H536.27z"/>
		<path class="st4" d="M947.79,456.9c-0.01-9.78-4.74-19.2-13.13-24.92l-74.45-50.73v105.63l27.31,0.09v31.85L555.59,721.26
			c-9.43,5.74-22.54,5.73-31.93,0L191.71,518.82V484.8l30.02,0.09V377.53l-77.05,52.02c-9.13,6.16-13.94,16.69-13.1,27.35h-0.18
			v25.13v121.73v216.22c0,54.17,47.77,98.24,106.48,98.24h603.45c58.73,0,106.49-44.07,106.49-98.24V603.77V482.04V456.9H947.79z
			 M887.52,603.77v216.22c0,20.91-20.72,37.92-46.19,37.92H237.88c-25.46,0-46.17-17.01-46.17-37.92V603.77v-14.3l300.54,183.29
			c28.32,17.28,66.37,17.29,94.74,0.01l300.54-183.29V603.77z"/>
	</g>
	<g>
		<path class="st1" d="M539.68,413.59c-15.76,0-30.56,11.9-30.56,32.49c0,20.59,14.8,32.81,30.56,32.81
			c16.08,0,30.88-12.54,30.88-32.81S555.77,413.59,539.68,413.59z"/>
		<path class="st1" d="M775.11,267.45H306.83c-30.7,0-55.59,22.2-55.59,49.58v190.45l289.73,173.65L830.7,505.34V317.03
			C830.7,289.65,805.81,267.45,775.11,267.45z M613.99,512.98c-18.33,0-32.17-6.75-38.92-19.62c-9.97,12.22-24.77,18.98-43.75,18.98
			c-35.7,0-63.69-25.41-63.69-65.94c0-41.49,28.63-66.58,63.69-66.58c16.08,0,29.27,5.15,39.24,14.8v-11.9h35.7v89.42
			c0,9.65,7.4,14.8,16.08,14.8c18.01,0,26.05-27.34,26.05-51.47c0-58.22-46.96-96.5-104.86-96.5
			c-62.72,0-110.01,45.35-110.01,107.11c0,61.44,47.28,105.5,108.08,105.5c27.34,0,53.72-8.68,77.2-26.7l14.48,22.84
			c-23.48,18.98-56.29,30.24-91.03,30.24c-77.52,0-136.7-54.68-136.7-131.24c0-77.2,59.83-133.49,137.99-133.49
			c73.02,0,132.84,50.18,132.84,120.94C676.39,468.91,661.91,512.98,613.99,512.98z"/>
	</g>
</g>
</svg>
