<?xml version="1.0" encoding="utf-8"?>
<!-- Generator: Adobe Illustrator 28.0.0, SVG Export Plug-In . SVG Version: 6.00 Build 0)  -->
<svg version="1.1" id="Capa_1" xmlns="http://www.w3.org/2000/svg" xmlns:xlink="http://www.w3.org/1999/xlink" x="0px" y="0px"
	 viewBox="0 0 1080 1080" style="enable-background:new 0 0 1080 1080;" xml:space="preserve">
<style type="text/css">
	.st0{fill-rule:evenodd;clip-rule:evenodd;fill:#585A5D;}
	.st1{fill:#639940;}
	
		.st2{opacity:0.21;clip-path:url(#SVGID_00000132060421840401079400000014235308492226225293_);fill:url(#SVGID_00000174578641019756907980000011014530570528074685_);}
	
		.st3{opacity:0.77;clip-path:url(#SVGID_00000027571527080157374510000007987944145846715038_);fill:url(#SVGID_00000064313483236029804150000006506733636032567168_);}
	.st4{fill:#585A5D;}
	
		.st5{opacity:0.15;clip-path:url(#SVGID_00000178899159970469259330000017722628211289613475_);fill:url(#SVGID_00000179604464158085710790000006154657914884287882_);}
	
		.st6{opacity:0.77;clip-path:url(#SVGID_00000059294574623509628050000015730760087555316629_);fill:url(#SVGID_00000158741575606576941350000009727480357960758207_);}
	.st7{opacity:0.2;fill:url(#SVGID_00000086680215757578572750000014257317068204610691_);}
	.st8{opacity:0.29;fill:url(#SVGID_00000176014225934227824120000001693446675170886822_);}
	
		.st9{opacity:0.38;clip-path:url(#SVGID_00000173136062842583543220000007154783472738976396_);fill:url(#SVGID_00000096036955902556400750000014400735794588206988_);}
	
		.st10{opacity:0.15;clip-path:url(#SVGID_00000142169807880026490310000008521999873404260799_);fill:url(#SVGID_00000088098406453984274950000002111864510161370526_);}
	
		.st11{opacity:0.29;clip-path:url(#SVGID_00000174580082325325939380000016068885868147798960_);fill:url(#SVGID_00000127747982401339367490000012134768507909844145_);}
</style>
<g>
	<g>
		<path class="st1" d="M834.26,327.86c9.14,0,16.57,7.44,16.57,16.57v10.67L540,567.65L229.17,355.1v-10.67
			c0-9.14,7.44-16.57,16.57-16.57H834.26 M834.26,269.99H245.74c-41.11,0-74.44,33.33-74.44,74.44v41.2L527.35,629.1
			c3.84,2.63,8.25,3.94,12.65,3.94c4.4,0,8.81-1.31,12.65-3.94L908.7,385.64v-41.2C908.7,303.32,875.37,269.99,834.26,269.99
			L834.26,269.99z"/>
		<path class="st4" d="M570.88,655.76c-9.38,6.41-20.13,9.62-30.88,9.62c-10.76,0-21.5-3.21-30.88-9.62l-337.82-231v310.8
			c0,41.11,33.33,74.44,74.44,74.44h588.52c41.11,0,74.44-33.33,74.44-74.44v-310.8L570.88,655.76z"/>
	</g>
	<g>
		<defs>
			<path id="SVGID_00000019664907112078911600000005750868704723376276_" d="M527.35,629.1c7.68,5.25,17.61,5.26,25.3,0
				L908.7,385.64v-41.2c0-41.11-33.33-74.44-74.44-74.44H245.74c-41.11,0-74.44,33.33-74.44,74.44v41.2L527.35,629.1z"/>
		</defs>
		<clipPath id="SVGID_00000044153502746528405940000012319496744182042296_">
			<use xlink:href="#SVGID_00000019664907112078911600000005750868704723376276_"  style="overflow:visible;"/>
		</clipPath>
		
			<linearGradient id="SVGID_00000170243800190382497180000013025864614345464712_" gradientUnits="userSpaceOnUse" x1="135.5599" y1="103.9085" x2="873.8093" y2="103.9085" gradientTransform="matrix(0.9998 -0.0187 0.0187 0.9998 -227.4551 166.0115)">
			<stop  offset="0" style="stop-color:#639940"/>
			<stop  offset="1" style="stop-color:#FFFFFF;stop-opacity:0"/>
		</linearGradient>
		
			<path style="opacity:0.77;clip-path:url(#SVGID_00000044153502746528405940000012319496744182042296_);fill:url(#SVGID_00000170243800190382497180000013025864614345464712_);" d="
			M-89.97,267.36C-29.21,125.6,110.4,25.06,274.62,21.99c164.23-3.08,307.5,92.16,373.53,231.54
			c-60.76,141.76-200.37,242.3-364.59,245.38C119.33,501.98-23.94,406.75-89.97,267.36z"/>
	</g>
</g>
</svg>
