<?xml version="1.0" encoding="utf-8"?>
<!-- Generator: Adobe Illustrator 28.0.0, SVG Export Plug-In . SVG Version: 6.00 Build 0)  -->
<svg version="1.1" id="Capa_1" xmlns="http://www.w3.org/2000/svg" xmlns:xlink="http://www.w3.org/1999/xlink" x="0px" y="0px"
	 viewBox="0 0 1080 1080" style="enable-background:new 0 0 1080 1080;" xml:space="preserve">
<style type="text/css">
	.st0{fill-rule:evenodd;clip-rule:evenodd;fill:#585A5D;}
	.st1{fill:#639940;}
	
		.st2{opacity:0.21;clip-path:url(#SVGID_00000127022951185346212350000001358700522220926897_);fill:url(#SVGID_00000173163358013259422510000002380374451434340791_);}
	
		.st3{opacity:0.77;clip-path:url(#SVGID_00000126300092277903844630000007750732721835398585_);fill:url(#SVGID_00000106854831307166915830000003533456742991223730_);}
	.st4{fill:#585A5D;}
	
		.st5{opacity:0.15;clip-path:url(#SVGID_00000170276166691839452920000012364030961949439637_);fill:url(#SVGID_00000031889518794612728160000001169343515079160202_);}
	
		.st6{opacity:0.77;clip-path:url(#SVGID_00000106138633982971711200000010505995562248726935_);fill:url(#SVGID_00000088105577482832593470000005507348607379835830_);}
	.st7{opacity:0.2;fill:url(#SVGID_00000084527488606559950730000000260508355652405911_);}
	.st8{opacity:0.29;fill:url(#SVGID_00000096060339428449846050000013304250488238966962_);}
	
		.st9{opacity:0.38;clip-path:url(#SVGID_00000148626698015054319400000000319542358182777743_);fill:url(#SVGID_00000053529640030817161030000003228947378114735269_);}
	
		.st10{opacity:0.15;clip-path:url(#SVGID_00000160157467716537142400000016031286409824688803_);fill:url(#SVGID_00000141452642024646881100000012480847091457669297_);}
	
		.st11{opacity:0.29;clip-path:url(#SVGID_00000036213647378999107310000006460134357953895842_);fill:url(#SVGID_00000054257222101279313850000014100053595176432004_);}
</style>
<g>
	<g>
		<path class="st1" d="M840.74,473.55c0-165.83-134.91-300.74-300.74-300.74c-165.83,0-300.74,134.91-300.74,300.74
			c0,206.95,272.16,372.9,283.75,379.86L540,863.63l17-10.22C568.58,846.45,840.74,680.51,840.74,473.55z M539.97,785.88
			c-23.3-15.59-67.25-46.97-111.03-88.88c-56.43-54-123.69-136.61-123.69-223.45c0-129.44,105.31-234.75,234.75-234.75
			c129.44,0,234.75,105.31,234.75,234.75C774.75,616.99,596.51,747.96,539.97,785.88z"/>
		<g>
			<path class="st4" d="M769.23,789.95c-51.49,0-93.23,10.59-93.23,23.65c0,6.03,8.98,11.52,23.64,15.7l-103.63,30.67
				c-4.84-0.81-10.05-1.49-15.43-2.09c-8.29,5.43-13.71,8.73-15.15,9.59l-17,10.22l-8.45,5.08l-8.45-5.08l-16.99-10.21
				c-1.44-0.86-6.86-4.17-15.15-9.59c-5.37,0.6-10.58,1.27-15.43,2.09L380.35,829.3c14.66-4.18,23.64-9.67,23.64-15.7
				c0-13.06-41.74-23.65-93.23-23.65s-93.23,10.59-93.23,23.65c0,13.06,41.74,23.65,93.23,23.65c18.66,0,36-1.41,50.57-3.8
				l103.65,30.68c-16.41,4.57-26.49,10.63-26.49,17.31c0,14.22,45.44,25.75,101.5,25.75s101.5-11.53,101.5-25.75
				c0-6.67-10.08-12.73-26.48-17.3l103.65-30.68c14.58,2.39,31.91,3.8,50.57,3.8c51.49,0,93.23-10.59,93.23-23.65
				C862.46,800.54,820.72,789.95,769.23,789.95z"/>
		</g>
	</g>
	
		<linearGradient id="SVGID_00000014635614943190687210000018372171984351456908_" gradientUnits="userSpaceOnUse" x1="-1098.0942" y1="26008.9863" x2="-547.0993" y2="26008.9863" gradientTransform="matrix(-1 0 0 -1 -282.5966 26360)">
		<stop  offset="0" style="stop-color:#639940"/>
		<stop  offset="1" style="stop-color:#FFFFFF;stop-opacity:0"/>
	</linearGradient>
	<path style="opacity:0.29;fill:url(#SVGID_00000014635614943190687210000018372171984351456908_);" d="M815.5,351.01
		C768.17,455.95,662.59,529.02,540,529.02c-122.59,0-228.17-73.07-275.5-178.01C311.83,246.08,417.41,173.01,540,173.01
		C662.59,173.01,768.17,246.08,815.5,351.01z"/>
	<path class="st4" d="M540,649.27c-100.49,0-182.24-81.75-182.24-182.24S439.51,284.79,540,284.79s182.24,81.75,182.24,182.24
		S640.49,649.27,540,649.27z M550.86,539.52c-0.68,0-1.34,0.26-1.83,0.74c-0.51,0.5-0.8,1.18-0.8,1.89v86.74
		c0,0.8,0.36,1.56,0.99,2.06c0.47,0.38,1.05,0.57,1.64,0.57c0.2,0,0.39-0.02,0.58-0.07c27.72-6.3,53.16-35.97,68.04-79.36
		c0.24-0.69,0.17-1.46-0.17-2.1c-0.35-0.65-0.95-1.12-1.66-1.3c-20.82-5.35-43.26-8.44-66.7-9.17
		C550.92,539.52,550.89,539.52,550.86,539.52z M529.05,539.53c-23.46,0.74-45.9,3.83-66.7,9.18c-0.71,0.18-1.31,0.65-1.66,1.3
		c-0.35,0.65-0.41,1.41-0.17,2.1c14.88,43.38,40.31,73.04,68.04,79.35c0.19,0.04,0.39,0.07,0.58,0.07c0.59,0,1.17-0.2,1.64-0.57
		c0.62-0.5,0.99-1.26,0.99-2.06v-86.74c0-0.71-0.29-1.39-0.8-1.89c-0.49-0.48-1.15-0.74-1.83-0.74
		C529.11,539.53,529.08,539.53,529.05,539.53z M441.84,555.11c-0.3,0-0.61,0.05-0.89,0.16c-10.41,3.77-19.93,8.13-28.28,12.97
		c-0.67,0.39-1.13,1.05-1.27,1.81c-0.14,0.76,0.07,1.54,0.56,2.14c15.95,19.38,36.44,35.16,59.27,45.61
		c0.35,0.16,0.72,0.24,1.09,0.24c0.79,0,1.57-0.36,2.08-1.02c0.75-0.97,0.73-2.32-0.04-3.27c-12.39-15.24-22.49-34.36-30.02-56.84
		c-0.23-0.67-0.71-1.22-1.35-1.53C442.62,555.2,442.23,555.11,441.84,555.11z M638.17,555.09c-0.39,0-0.78,0.09-1.15,0.26
		c-0.64,0.31-1.12,0.86-1.35,1.53c-7.53,22.49-17.64,41.62-30.03,56.87c-0.77,0.95-0.79,2.31-0.04,3.27
		c0.51,0.66,1.29,1.02,2.08,1.02c0.37,0,0.74-0.08,1.1-0.24c22.83-10.46,43.32-26.23,59.26-45.61c0.49-0.6,0.69-1.38,0.56-2.14
		c-0.14-0.76-0.6-1.42-1.27-1.81c-8.44-4.89-17.95-9.27-28.27-13C638.78,555.14,638.47,555.09,638.17,555.09z M651.96,475.26
		c-1.42,0-2.58,1.13-2.63,2.54c-0.68,20.24-3.29,39.91-7.76,58.46c-0.31,1.31,0.41,2.65,1.68,3.1c12.66,4.48,24.13,9.76,34.11,15.69
		c0.42,0.25,0.88,0.37,1.34,0.37c0.88,0,1.74-0.44,2.24-1.24c14.2-22.89,22.65-49.21,24.43-76.11c0.05-0.73-0.21-1.44-0.7-1.97
		c-0.5-0.53-1.19-0.83-1.92-0.83H651.96z M377.26,475.26c-0.73,0-1.42,0.3-1.92,0.83c-0.5,0.53-0.75,1.25-0.7,1.97
		c1.78,26.9,10.22,53.21,24.42,76.1c0.5,0.8,1.36,1.24,2.24,1.24c0.46,0,0.92-0.12,1.34-0.37c9.97-5.92,21.44-11.19,34.12-15.67
		c1.27-0.45,1.99-1.79,1.68-3.1c-4.47-18.56-7.08-38.23-7.76-58.47c-0.05-1.42-1.21-2.54-2.63-2.54H377.26z M449.8,475.26
		c-0.71,0-1.4,0.29-1.9,0.81c-0.5,0.52-0.76,1.21-0.73,1.93c0.71,18.3,3.14,36.16,7.24,53.09c0.16,0.69,0.6,1.28,1.21,1.64
		c0.41,0.25,0.88,0.37,1.35,0.37c0.22,0,0.44-0.03,0.66-0.08c22.47-5.85,46.55-9.2,71.58-9.96c1.42-0.04,2.55-1.21,2.55-2.63v-42.53
		c0-1.45-1.18-2.63-2.63-2.63H449.8z M550.86,475.26c-1.45,0-2.63,1.18-2.63,2.63v42.53c0,1.42,1.13,2.59,2.55,2.63
		c25.05,0.75,49.13,4.1,71.59,9.95c0.22,0.06,0.44,0.09,0.66,0.09c0.47,0,0.94-0.13,1.35-0.37c0.61-0.36,1.04-0.95,1.21-1.64
		c4.1-16.93,6.53-34.79,7.24-53.08c0.03-0.71-0.24-1.41-0.73-1.93c-0.5-0.52-1.18-0.81-1.9-0.81H550.86z M678.7,378.64
		c-0.46,0-0.92,0.12-1.34,0.37c-9.97,5.92-21.44,11.2-34.11,15.69c-1.27,0.45-1.99,1.79-1.68,3.1c4.47,18.55,7.08,38.22,7.76,58.46
		c0.05,1.42,1.21,2.54,2.63,2.54h50.78c0.73,0,1.42-0.3,1.92-0.83c0.5-0.53,0.75-1.25,0.7-1.97c-1.78-26.9-10.22-53.22-24.43-76.11
		C680.44,379.08,679.58,378.64,678.7,378.64z M623.04,400.97c-0.22,0-0.44,0.03-0.66,0.09c-22.45,5.85-46.53,9.19-71.59,9.95
		c-1.42,0.04-2.55,1.21-2.55,2.63v42.53c0,1.45,1.18,2.63,2.63,2.63h79.34c0.71,0,1.4-0.29,1.9-0.81c0.5-0.52,0.76-1.21,0.73-1.93
		c-0.71-18.29-3.14-36.15-7.24-53.08c-0.16-0.69-0.6-1.28-1.21-1.64C623.98,401.1,623.51,400.97,623.04,400.97z M456.97,400.96
		c-0.47,0-0.94,0.13-1.35,0.37c-0.61,0.36-1.04,0.95-1.21,1.64c-4.1,16.93-6.53,34.8-7.24,53.09c-0.03,0.71,0.24,1.41,0.73,1.93
		c0.5,0.52,1.18,0.81,1.9,0.81h79.34c1.45,0,2.63-1.18,2.63-2.63v-42.53c0-1.42-1.13-2.59-2.55-2.63
		c-25.03-0.75-49.11-4.1-71.58-9.96C457.41,400.99,457.19,400.96,456.97,400.96z M401.29,378.65c-0.88,0-1.74,0.44-2.24,1.24
		c-14.2,22.89-22.64,49.2-24.42,76.1c-0.05,0.73,0.21,1.44,0.7,1.97c0.5,0.53,1.2,0.83,1.92,0.83h50.78c1.42,0,2.58-1.13,2.63-2.54
		c0.68-20.24,3.29-39.91,7.76-58.47c0.31-1.31-0.41-2.65-1.68-3.1c-12.68-4.49-24.16-9.76-34.12-15.67
		C402.21,378.77,401.75,378.65,401.29,378.65z M550.86,302.53c-0.59,0-1.17,0.2-1.64,0.57c-0.62,0.5-0.99,1.26-0.99,2.06v86.74
		c0,0.71,0.29,1.39,0.8,1.89c0.49,0.48,1.15,0.74,1.83,0.74c0.03,0,0.05,0,0.08,0c23.46-0.74,45.91-3.82,66.7-9.17
		c0.71-0.18,1.31-0.65,1.66-1.3c0.35-0.65,0.41-1.41,0.17-2.1c-14.88-43.39-40.31-73.05-68.04-79.36
		C551.26,302.55,551.06,302.53,550.86,302.53z M529.14,302.53c-0.2,0-0.39,0.02-0.58,0.07c-27.72,6.3-53.15,35.97-68.04,79.35
		c-0.24,0.7-0.17,1.46,0.17,2.1c0.35,0.65,0.95,1.12,1.66,1.3c20.82,5.35,43.26,8.44,66.7,9.19c0.03,0,0.05,0,0.08,0
		c0.68,0,1.34-0.26,1.83-0.74c0.51-0.5,0.8-1.18,0.8-1.89v-86.74c0-0.8-0.36-1.56-0.99-2.06
		C530.31,302.73,529.73,302.53,529.14,302.53z M607.69,316.02c-0.79,0-1.57,0.36-2.08,1.02c-0.75,0.97-0.73,2.32,0.04,3.27
		c12.39,15.25,22.5,34.38,30.03,56.87c0.23,0.67,0.71,1.22,1.35,1.53c0.36,0.17,0.75,0.26,1.15,0.26c0.3,0,0.61-0.05,0.9-0.16
		c10.34-3.74,19.85-8.12,28.27-13c0.67-0.39,1.13-1.05,1.27-1.81c0.14-0.76-0.07-1.54-0.56-2.14
		c-15.94-19.38-36.44-35.16-59.27-45.61C608.43,316.09,608.06,316.02,607.69,316.02z M472.31,316.02c-0.37,0-0.74,0.08-1.09,0.24
		c-22.83,10.46-43.32,26.23-59.27,45.61c-0.49,0.6-0.69,1.38-0.56,2.14c0.14,0.76,0.6,1.42,1.27,1.81
		c8.35,4.84,17.87,9.2,28.28,12.97c0.29,0.1,0.59,0.16,0.89,0.16c0.39,0,0.78-0.09,1.15-0.26c0.64-0.31,1.12-0.86,1.35-1.53
		c7.53-22.48,17.63-41.6,30.02-56.84c0.77-0.95,0.79-2.3,0.04-3.27C473.88,316.38,473.1,316.02,472.31,316.02z"/>
</g>
</svg>
