<?xml version="1.0" encoding="utf-8"?>
<!-- Generator: Adobe Illustrator 28.0.0, SVG Export Plug-In . SVG Version: 6.00 Build 0)  -->
<svg version="1.1" id="Capa_1" xmlns="http://www.w3.org/2000/svg" xmlns:xlink="http://www.w3.org/1999/xlink" x="0px" y="0px"
	 viewBox="0 0 1080 1080" style="enable-background:new 0 0 1080 1080;" xml:space="preserve">
<style type="text/css">
	.st0{fill-rule:evenodd;clip-rule:evenodd;fill:#585A5D;}
	.st1{fill:#639940;}
	
		.st2{opacity:0.21;clip-path:url(#SVGID_00000147940540740890800380000018253029417399457720_);fill:url(#SVGID_00000029028856182250230350000001740073299293008527_);}
	
		.st3{opacity:0.77;clip-path:url(#SVGID_00000035506662765365969750000012101793387586857879_);fill:url(#SVGID_00000051368167539198182160000000952582829419238033_);}
	.st4{fill:#585A5D;}
	
		.st5{opacity:0.15;clip-path:url(#SVGID_00000176029037206948885880000007249053960533772443_);fill:url(#SVGID_00000148623832400572678750000002235157172272703679_);}
	
		.st6{opacity:0.77;clip-path:url(#SVGID_00000077292450513543145750000004816433453920644781_);fill:url(#SVGID_00000072243726830290623120000014204787886614273981_);}
	.st7{opacity:0.2;fill:url(#SVGID_00000092427417805158641420000003713292642598326947_);}
	.st8{opacity:0.29;fill:url(#SVGID_00000059274076758491365240000013003046242401074595_);}
	
		.st9{opacity:0.38;clip-path:url(#SVGID_00000020360582753513917810000002915834953333845123_);fill:url(#SVGID_00000088833786268547418780000001529573946633607824_);}
	
		.st10{opacity:0.15;clip-path:url(#SVGID_00000147199798223216985610000001909410716756662930_);fill:url(#SVGID_00000131326291258244098410000002519459973271441078_);}
	
		.st11{opacity:0.29;clip-path:url(#SVGID_00000078003040940750869370000010947016428732935820_);fill:url(#SVGID_00000166643301179003307200000009212470807555086985_);}
</style>
<g>
	<path class="st0" d="M540,271.53c-142.82,0-258.62,115.79-258.62,258.62c0,37.87,8.13,73.83,22.75,106.22
		c6.9,15.3,15.35,29.74,24.97,43.28l-34.37,102.13c-5.54,16.46,9.99,32.22,26.53,26.93l121.61-38.93
		c30,12.18,62.75,18.99,97.11,18.99c104.96,0,195.35-62.56,235.86-152.4c14.62-32.39,22.75-68.35,22.75-106.22
		C798.62,387.32,682.83,271.53,540,271.53z M676.84,629.63c-6.37,15.9-35.16,30.43-47.88,31.1c-12.68,0.68-13.05,9.91-82.27-20.39
		c-69.18-30.29-110.81-103.98-114.09-108.73c-3.28-4.72-26.81-38.5-25.53-72.49c1.26-34,19.75-50.05,26.35-56.72
		c6.57-6.67,14.12-8.12,18.74-7.95c4.6,0.18,9.18,0.93,13.21,1.07c4.03,0.16,9.87-1.92,15.11,12.11
		c5.23,14.05,17.77,48.57,19.37,52.08c1.6,3.53,2.61,7.6,0.13,12.12c-2.47,4.52-3.74,7.37-7.32,11.26
		c-3.61,3.9-7.6,8.73-10.83,11.73c-3.58,3.31-7.35,6.91-3.56,13.98c3.77,7.06,16.78,30.2,36.64,49.28
		c25.51,24.52,47.51,32.66,54.26,36.37c6.8,3.73,10.85,3.31,15.06-1.17c4.18-4.46,18.02-19.53,22.87-26.25
		c4.88-6.75,9.45-5.43,15.69-2.88c6.24,2.54,39.58,20.52,46.36,24.24c6.77,3.71,11.32,5.62,12.94,8.56
		C683.72,599.89,683.21,613.72,676.84,629.63z"/>
	<path class="st1" d="M877.89,422.81c-3.34-10.6-7.18-21.07-11.54-31.39c-17.84-42.18-43.38-80.05-75.9-112.58
		c-32.52-32.52-70.4-58.06-112.58-75.9C634.19,184.47,587.81,175.1,540,175.1s-94.19,9.37-137.87,27.84
		c-42.18,17.84-80.05,43.38-112.58,75.9s-58.06,70.4-75.9,112.58c-4.18,9.89-7.87,19.92-11.12,30.08c-0.09,0-0.17-0.01-0.26-0.01h0
		c-27.39,0-49.81,22.41-49.81,49.81v138.68c0,27.39,22.41,49.81,49.81,49.81h0c27.39,0,49.81-22.41,49.81-49.81V471.3
		c0-15.6-7.27-29.57-18.58-38.72c15.3-48.7,42.2-93.32,79.33-130.45c60.68-60.68,141.35-94.09,227.17-94.09
		c85.81,0,166.49,33.42,227.16,94.09c37.4,37.4,64.42,82.4,79.67,131.51c-11.5,9.14-18.91,23.23-18.91,38.98v138.68
		c0,12.49,4.67,23.94,12.34,32.71c-15.91,41.7-40.58,79.95-73.09,112.46c-40.33,40.33-89.5,68.6-143.14,83.04
		c-5.26-5.43-12.61-8.82-20.72-8.82h-63.53c-15.89,0-28.88,13-28.88,28.88l0,0c0,15.89,13,28.88,28.88,28.88h63.53
		c11.39,0,21.29-6.68,25.98-16.31c16.51-4.29,32.73-9.78,48.58-16.49c42.18-17.84,80.05-43.38,112.58-75.9s58.06-70.4,75.9-112.58
		c0.96-2.27,1.88-4.54,2.79-6.82c2.79,0.49,5.66,0.76,8.59,0.76h0c27.39,0,49.81-22.41,49.81-49.81V472.61
		C927.53,445.27,905.21,422.9,877.89,422.81z"/>
	<g>
		<defs>
			<path id="SVGID_1_" d="M540,271.53c-142.82,0-258.62,115.79-258.62,258.62c0,37.87,8.13,73.83,22.75,106.22
				c6.91,15.32,15.3,29.83,24.94,43.38l-34.33,102.03c-5.54,16.46,9.99,32.22,26.53,26.93l121.5-38.89
				c30.03,12.2,62.84,18.95,97.23,18.95c104.96,0,195.35-62.56,235.86-152.4c14.62-32.39,22.75-68.35,22.75-106.22
				C798.62,387.32,682.83,271.53,540,271.53z"/>
		</defs>
		<clipPath id="SVGID_00000153670291230879523860000017573671417821824145_">
			<use xlink:href="#SVGID_1_"  style="overflow:visible;"/>
		</clipPath>
		
			<linearGradient id="SVGID_00000095297525384683046480000004665777901198182542_" gradientUnits="userSpaceOnUse" x1="202.2763" y1="705.9059" x2="877.722" y2="705.9059">
			<stop  offset="0" style="stop-color:#639940"/>
			<stop  offset="1" style="stop-color:#FFFFFF;stop-opacity:0"/>
		</linearGradient>
		
			<path style="opacity:0.21;clip-path:url(#SVGID_00000153670291230879523860000017573671417821824145_);fill:url(#SVGID_00000095297525384683046480000004665777901198182542_);" d="
			M202.28,705.9C260.29,577.27,389.72,487.69,540,487.69c150.28,0,279.71,89.58,337.72,218.21
			C819.71,834.54,690.28,924.12,540,924.12C389.72,924.12,260.29,834.54,202.28,705.9z"/>
	</g>
</g>
</svg>
