<?xml version="1.0" encoding="utf-8"?>
<!-- Generator: Adobe Illustrator 28.0.0, SVG Export Plug-In . SVG Version: 6.00 Build 0)  -->
<svg version="1.1" id="Capa_1" xmlns="http://www.w3.org/2000/svg" xmlns:xlink="http://www.w3.org/1999/xlink" x="0px" y="0px"
	 viewBox="0 0 47.97 40.89" style="enable-background:new 0 0 47.97 40.89;" xml:space="preserve">
<style type="text/css">
	.st0{fill:rgb(27, 143, 69);}
	.st1{fill:#FFFFFF;}
</style>
<g>
	<g>
		<polygon class="st0" points="33.12,29.35 29.8,26.03 27.92,27.9 33.12,33.1 39.95,26.27 38.07,24.4 		"/>
		<path class="st1" d="M40.36,18.63V1.72H2.8V29.6h20.06c0.66,5.68,5.5,10.11,11.36,10.11c6.31,0,11.44-5.13,11.44-11.44
			C45.66,24.23,43.54,20.66,40.36,18.63z M34.22,16.84c-1.7,0-3.31,0.37-4.76,1.04l-2.46-2.22L37.7,6.02v11.36
			C36.61,17.03,35.44,16.84,34.22,16.84z M21.58,16.97l-14-12.6h28L21.58,16.97z M16.16,15.66L5.45,25.3V6.02L16.16,15.66z
			 M18.14,17.44l3.44,3.09l3.44-3.09l2.09,1.88c-2.31,1.84-3.89,4.55-4.25,7.62H7.58L18.14,17.44z M34.22,37.06
			c-4.85,0-8.79-3.94-8.79-8.79s3.94-8.79,8.79-8.79s8.79,3.94,8.79,8.79S39.07,37.06,34.22,37.06z"/>
	</g>
	<path class="st0" d="M34.22,16.84c-6.32,0-11.44,5.12-11.44,11.44c0,6.32,5.12,11.44,11.44,11.44s11.44-5.12,11.44-11.44
		C45.66,21.96,40.54,16.84,34.22,16.84z M34.22,37.06c-4.85,0-8.79-3.93-8.79-8.79c0-4.85,3.93-8.79,8.79-8.79s8.79,3.93,8.79,8.79
		C43.01,33.13,39.07,37.06,34.22,37.06z"/>
</g>
</svg>
