<?xml version="1.0" encoding="utf-8"?>
<!-- Generator: Adobe Illustrator 28.0.0, SVG Export Plug-In . SVG Version: 6.00 Build 0)  -->
<svg version="1.1" id="Capa_1" xmlns="http://www.w3.org/2000/svg" xmlns:xlink="http://www.w3.org/1999/xlink" x="0px" y="0px"
	 viewBox="0 0 50 52.4" style="enable-background:new 0 0 50 52.4;" xml:space="preserve">
<style type="text/css">
	.st0{fill:#FFFFFF;}
	.st1{fill:rgb(27, 143, 69);}
</style>
<g>
	<g>
		<path class="st0" d="M25.3,36.7h-2V23.1h5v8.6c0.9-0.9,1.9-1.6,3-2.1V17.7h5v10.6c1,0,2,0.2,3,0.4V16.2c0-0.8-0.7-1.5-1.5-1.5h-8
			c-0.8,0-1.5,0.7-1.5,1.5V20h-6.5c-0.8,0-1.5,0.7-1.5,1.5v3.8h-6.5c-0.8,0-1.5,0.7-1.5,1.5v3.8H5.7c-0.8,0-1.5,0.7-1.5,1.5v4.5H1.7
			c-0.8,0-1.5,0.7-1.5,1.5s0.7,1.5,1.5,1.5h23.1C24.8,38.7,25,37.7,25.3,36.7z M12.3,36.7h-5v-3h5V36.7z M20.3,36.7h-5v-8.3h5V36.7z
			"/>
		<path class="st0" d="M1.6,18.5c0.2,0.7,0.8,1.2,1.5,1.2c0.1,0,0.2,0,0.3,0C14.1,17.3,24,13.1,34.3,6.5l-0.4,2
			c-0.2,0.8,0.3,1.6,1.2,1.8c0.1,0,0.2,0,0.3,0c0.7,0,1.3-0.5,1.5-1.2L38,3.7c0.2-0.8-0.3-1.6-1.2-1.8l-5.5-1.1
			c-0.8-0.2-1.6,0.3-1.8,1.2c-0.2,0.8,0.3,1.6,1.2,1.8l1.9,0.4c-9.9,6.3-19.5,10.4-29.9,12.7C1.9,16.9,1.4,17.7,1.6,18.5L1.6,18.5z"
			/>
	</g>
</g>
<path class="st1" d="M36.2,28.3c-6.3,0-11.4,5.1-11.4,11.4s5.1,11.4,11.4,11.4S47.6,46,47.6,39.7C47.6,33.4,42.5,28.3,36.2,28.3z
	 M36.2,48.6c-4.9,0-8.8-3.9-8.8-8.8s3.9-8.8,8.8-8.8s8.8,3.9,8.8,8.8C45,44.6,41,48.6,36.2,48.6z"/>
<polygon class="st1" points="35.2,40.8 31.9,37.5 30,39.4 35.2,44.6 42,37.8 40.1,35.9 "/>
</svg>
