<?xml version="1.0" encoding="utf-8"?>
<!-- Generator: Adobe Illustrator 28.0.0, SVG Export Plug-In . SVG Version: 6.00 Build 0)  -->
<svg version="1.1" id="Capa_1" xmlns="http://www.w3.org/2000/svg" xmlns:xlink="http://www.w3.org/1999/xlink" x="0px" y="0px"
	 viewBox="0 0 43.5 43.8" style="enable-background:new 0 0 43.5 43.8;" xml:space="preserve">
<style type="text/css">
	.st0{fill:rgb(27, 143, 69);}
	.st1{fill:#FFFFFF;}
</style>
<g>
	<path class="st0" d="M31.4,20.1c-6.3,0-11.4,5.1-11.4,11.4c0,6.3,5.1,11.4,11.4,11.4s11.4-5.1,11.4-11.4
		C42.8,25.2,37.7,20.1,31.4,20.1z M31.4,40.3c-4.9,0-8.8-3.9-8.8-8.8c0-4.9,3.9-8.8,8.8-8.8s8.8,3.9,8.8,8.8
		C40.1,36.4,36.2,40.3,31.4,40.3z"/>
	<polygon class="st0" points="30.2,32.6 26.9,29.2 25.1,31.1 30.2,36.3 37.1,29.5 35.2,27.6 	"/>
	<g>
		<path class="st1" d="M20.1,33.6H6.5C5.6,33.6,5,33,5,32.2V20.4c0-2.3,2.1-4.4,4.4-4.4H24c2.3,0,4.4,2.1,4.4,4.4v0
			c0.9-0.2,1.9-0.4,2.9-0.4c-0.2-3.3-2.7-6.1-5.8-6.6v-3.2c0-5-3.8-8.8-8.8-8.8c-5,0-8.8,3.8-8.8,8.8v3.2c-3.2,0.6-5.9,3.5-5.9,7
			v11.7c0,2.3,2.1,4.4,4.4,4.4h14.6C20.6,35.6,20.3,34.7,20.1,33.6z M10.8,10.2c0-3.2,2.6-5.9,5.9-5.9c3.2,0,5.9,2.6,5.9,5.9v2.9
			H10.8V10.2z"/>
	</g>
	<path class="st1" d="M22.5,24.2c-0.3-2.9-2.8-5.2-5.8-5.2c-3.2,0-5.9,2.6-5.9,5.9s2.6,5.9,5.9,5.9c1.3,0,2.4-0.4,3.4-1.1
		C20.4,27.6,21.3,25.7,22.5,24.2z M16.7,27.8c-1.8,0-2.9-1.2-2.9-2.9s1.2-2.9,2.9-2.9c1.8,0,2.9,1.2,2.9,2.9S18.5,27.8,16.7,27.8z"
		/>
</g>
</svg>
