<?xml version="1.0" encoding="utf-8"?>
<!-- Generator: Adobe Illustrator 28.0.0, SVG Export Plug-In . SVG Version: 6.00 Build 0)  -->
<svg version="1.1" id="Capa_1" xmlns="http://www.w3.org/2000/svg" xmlns:xlink="http://www.w3.org/1999/xlink" x="0px" y="0px"
	 viewBox="0 0 43.5 43.8" style="enable-background:new 0 0 43.5 43.8;" xml:space="preserve">
<style type="text/css">
	.st0{fill:rgb(27, 143, 69);}
	.st1{fill:#FFFFFF;}
</style>
<g>
	<path class="st0" d="M31.4,20c-6.3,0-11.4,5.1-11.4,11.4c0,6.3,5.1,11.4,11.4,11.4s11.4-5.1,11.4-11.4C42.8,25.1,37.7,20,31.4,20z
		 M31.4,40.3c-4.9,0-8.8-3.9-8.8-8.8c0-4.9,3.9-8.8,8.8-8.8s8.8,3.9,8.8,8.8C40.1,36.3,36.2,40.3,31.4,40.3z"/>
	<polygon class="st0" points="30.2,32.5 26.9,29.2 25.1,31.1 30.2,36.3 37.1,29.5 35.2,27.6 	"/>
	<polygon class="st1" points="18.7,25.8 18.7,25.8 18.7,25.8 	"/>
	<g>
		<path class="st1" d="M20.3,34.4h-10v-1.9c0-1,0.8-1.8,1.8-1.8H20c0.3-4.6,3.3-8.5,7.5-10c0,0,0,0,0,0c0.8-1.4,1.3-3.1,1.3-4.9
			v-1.2v0c3-0.5,5.3-3.1,5.3-6.3V4.3C34,3.6,33.4,3,32.7,3H4.8C4.1,3,3.5,3.6,3.5,4.3v4.1c0,3.1,2.3,5.8,5.3,6.3v1.2
			c0,4.3,2.7,7.9,6.5,9.3L14.4,28h-2.3c-2.5,0-4.5,2-4.5,4.5v3.2c0,0.7,0.6,1.3,1.3,1.3h12.4C20.9,36.2,20.6,35.4,20.3,34.4z
			 M28.7,5.6h2.6v2.7c0,1.7-1.1,3.1-2.6,3.5V5.6z M17.2,28l0.7-2.3c0.3,0,0.6,0,0.9,0h0.1v0c0.1,0,0.2,0,0.2,0l-0.3,0h0.1
			c0.3,0,0.6,0,0.9,0l-0.3,0c0.1,0,0.2,0,0.3,0l0.7,2.3H17.2z M8.8,11.9C7.2,11.4,6.1,10,6.1,8.4V5.6h2.6V11.9z M11.4,15.8V5.6h14.7
			v6.3l0,3.9c0,1.3-0.4,2.6-1,3.6c0,0,0,0,0,0c0,0.1-0.1,0.2-0.2,0.3c0,0,0,0,0,0.1c0,0,0,0.1-0.1,0.1c0,0,0,0.1-0.1,0.1
			c0,0,0,0,0,0.1c0,0.1-0.1,0.1-0.1,0.2c0,0,0,0,0,0c0,0.1-0.1,0.1-0.1,0.2c0,0,0,0,0,0c-1.4,1.7-3.5,2.7-5.7,2.7h-0.1
			C14.7,23.1,11.4,19.9,11.4,15.8z"/>
	</g>
</g>
</svg>
