<?xml version="1.0" encoding="utf-8"?>
<!-- Generator: Adobe Illustrator 28.0.0, SVG Export Plug-In . SVG Version: 6.00 Build 0)  -->
<svg version="1.1" id="Capa_1" xmlns="http://www.w3.org/2000/svg" xmlns:xlink="http://www.w3.org/1999/xlink" x="0px" y="0px"
	 viewBox="0 0 800 323.41" style="enable-background:new 0 0 800 323.41;" xml:space="preserve">
<style type="text/css">
	.st0{fill:#44A4DD;}
	.st1{fill-rule:evenodd;clip-rule:evenodd;fill:#C92329;}
	.st2{fill:#45A7DE;}
	.st3{fill-rule:evenodd;clip-rule:evenodd;fill:#00368A;}
	.st4{fill:#377EFC;}
	.st5{fill:#45AE37;}
	.st6{fill:#EE3C18;}
	.st7{fill:#F6BA0C;}
	.st8{fill:#262F36;}
	.st9{clip-path:url(#SVGID_00000029760470339523096950000002582356266586461609_);}
	.st10{clip-path:url(#SVGID_00000012449645325343726040000012346125821493368978_);}
	
		.st11{clip-path:url(#SVGID_00000127043611987970337480000008507590522208062627_);fill:url(#SVGID_00000011025131735392711680000002613463712905279401_);}
	.st12{fill-rule:evenodd;clip-rule:evenodd;fill:#5CD760;}
	.st13{fill:#5CD760;}
	.st14{fill:#AF0014;}
	.st15{fill:#252F3E;}
	.st16{fill-rule:evenodd;clip-rule:evenodd;fill:#FF9900;}
	.st17{fill:#497F8F;}
	.st18{fill:#209BE4;}
	.st19{fill:#005F9F;}
	.st20{fill:#F57917;}
</style>
<g>
	<path class="st15" d="M317.03,136.34c0,4.68,0.51,8.47,1.39,11.26c1.01,2.78,2.28,5.82,4.05,9.11c0.63,1.01,0.89,2.02,0.89,2.91
		c0,1.26-0.76,2.53-2.4,3.79l-7.97,5.31c-1.14,0.76-2.28,1.14-3.29,1.14c-1.26,0-2.53-0.63-3.79-1.77c-1.77-1.9-3.29-3.92-4.55-5.94
		c-1.26-2.15-2.53-4.55-3.92-7.46c-9.87,11.64-22.26,17.45-37.18,17.45c-10.62,0-19.1-3.04-25.3-9.11
		c-6.2-6.07-9.36-14.17-9.36-24.28c0-10.75,3.79-19.48,11.51-26.05c7.72-6.58,17.96-9.87,30.99-9.87c4.3,0,8.73,0.38,13.41,1.01
		c4.68,0.63,9.49,1.64,14.54,2.78v-9.23c0-9.61-2.02-16.32-5.94-20.24c-4.05-3.92-10.88-5.82-20.62-5.82
		c-4.43,0-8.98,0.51-13.66,1.64c-4.68,1.14-9.23,2.53-13.66,4.3c-2.02,0.89-3.54,1.39-4.43,1.64c-0.89,0.25-1.52,0.38-2.02,0.38
		c-1.77,0-2.66-1.26-2.66-3.92v-6.2c0-2.02,0.25-3.54,0.89-4.43c0.63-0.89,1.77-1.77,3.54-2.66c4.43-2.28,9.74-4.17,15.94-5.69
		c6.2-1.64,12.77-2.4,19.73-2.4c15.05,0,26.05,3.41,33.14,10.24c6.96,6.83,10.5,17.2,10.5,31.11v40.98H317.03z M265.68,155.56
		c4.17,0,8.47-0.76,13.03-2.28c4.55-1.52,8.6-4.3,12.02-8.09c2.02-2.4,3.54-5.06,4.3-8.09c0.76-3.04,1.26-6.7,1.26-11v-5.31
		c-3.67-0.89-7.59-1.64-11.64-2.15c-4.05-0.51-7.97-0.76-11.89-0.76c-8.47,0-14.67,1.64-18.85,5.06c-4.17,3.41-6.2,8.22-6.2,14.54
		c0,5.94,1.52,10.37,4.68,13.41C255.43,154.05,259.86,155.56,265.68,155.56z M367.24,169.22c-2.28,0-3.79-0.38-4.81-1.26
		c-1.01-0.76-1.9-2.53-2.66-4.93l-29.72-97.77c-0.76-2.53-1.14-4.17-1.14-5.06c0-2.02,1.01-3.16,3.04-3.16h12.39
		c2.4,0,4.05,0.38,4.93,1.26c1.01,0.76,1.77,2.53,2.53,4.93l21.25,83.73l19.73-83.73c0.63-2.53,1.39-4.17,2.4-4.93
		c1.01-0.76,2.78-1.26,5.06-1.26h10.12c2.4,0,4.05,0.38,5.06,1.26c1.01,0.76,1.9,2.53,2.4,4.93l19.98,84.74l21.88-84.74
		c0.76-2.53,1.64-4.17,2.53-4.93c1.01-0.76,2.66-1.26,4.93-1.26h11.76c2.02,0,3.16,1.01,3.16,3.16c0,0.63-0.13,1.26-0.25,2.02
		c-0.13,0.76-0.38,1.77-0.89,3.16l-30.48,97.77c-0.76,2.53-1.64,4.17-2.66,4.93c-1.01,0.76-2.66,1.26-4.81,1.26h-10.88
		c-2.4,0-4.05-0.38-5.06-1.26c-1.01-0.89-1.9-2.53-2.4-5.06l-19.6-81.58l-19.48,81.45c-0.63,2.53-1.39,4.17-2.4,5.06
		c-1.01,0.89-2.78,1.26-5.06,1.26H367.24z M529.76,172.64c-6.58,0-13.15-0.76-19.48-2.28c-6.32-1.52-11.26-3.16-14.54-5.06
		c-2.02-1.14-3.41-2.4-3.92-3.54c-0.51-1.14-0.76-2.4-0.76-3.54v-6.45c0-2.66,1.01-3.92,2.91-3.92c0.76,0,1.52,0.13,2.28,0.38
		c0.76,0.25,1.9,0.76,3.16,1.26c4.3,1.9,8.98,3.41,13.91,4.43c5.06,1.01,9.99,1.52,15.05,1.52c7.97,0,14.17-1.39,18.47-4.17
		s6.58-6.83,6.58-12.02c0-3.54-1.14-6.45-3.41-8.85c-2.28-2.4-6.58-4.55-12.77-6.58l-18.34-5.69c-9.23-2.91-16.06-7.21-20.24-12.9
		c-4.17-5.56-6.32-11.76-6.32-18.34c0-5.31,1.14-9.99,3.41-14.04c2.28-4.05,5.31-7.59,9.11-10.37c3.79-2.91,8.09-5.06,13.15-6.58
		s10.37-2.15,15.94-2.15c2.78,0,5.69,0.13,8.47,0.51c2.91,0.38,5.57,0.89,8.22,1.39c2.53,0.63,4.93,1.26,7.21,2.02
		c2.28,0.76,4.05,1.52,5.31,2.28c1.77,1.01,3.04,2.02,3.79,3.16c0.76,1.01,1.14,2.4,1.14,4.17v5.94c0,2.66-1.01,4.05-2.91,4.05
		c-1.01,0-2.66-0.51-4.81-1.52c-7.21-3.29-15.3-4.93-24.28-4.93c-7.21,0-12.9,1.14-16.82,3.54c-3.92,2.4-5.94,6.07-5.94,11.26
		c0,3.54,1.26,6.58,3.79,8.98c2.53,2.4,7.21,4.81,13.91,6.96l17.96,5.69c9.11,2.91,15.68,6.96,19.6,12.14
		c3.92,5.19,5.82,11.13,5.82,17.71c0,5.44-1.14,10.37-3.29,14.67c-2.28,4.3-5.31,8.09-9.23,11.13c-3.92,3.16-8.6,5.44-14.04,7.08
		C542.16,171.75,536.21,172.64,529.76,172.64z"/>
	<g>
		<path class="st16" d="M553.67,234.11c-41.61,30.73-102.07,47.05-154.05,47.05c-72.85,0-138.49-26.94-188.07-71.71
			c-3.92-3.54-0.38-8.35,4.3-5.57c53.63,31.11,119.77,49.96,188.2,49.96c46.16,0,96.88-9.61,143.55-29.34
			C554.55,221.33,560.5,229.05,553.67,234.11z"/>
		<path class="st16" d="M570.99,214.38c-5.31-6.83-35.16-3.29-48.69-1.64c-4.05,0.51-4.68-3.04-1.01-5.69
			c23.78-16.69,62.86-11.89,67.41-6.32c4.55,5.69-1.26,44.77-23.52,63.49c-3.41,2.91-6.7,1.39-5.19-2.4
			C565.05,249.28,576.3,221.08,570.99,214.38z"/>
	</g>
</g>
</svg>
