<?xml version="1.0" encoding="utf-8"?>
<!-- Generator: Adobe Illustrator 28.0.0, SVG Export Plug-In . SVG Version: 6.00 Build 0)  -->
<svg version="1.1" id="Capa_1" xmlns="http://www.w3.org/2000/svg" xmlns:xlink="http://www.w3.org/1999/xlink" x="0px" y="0px"
	 viewBox="0 0 800 323.41" style="enable-background:new 0 0 800 323.41;" xml:space="preserve">
<style type="text/css">
	.st0{fill:#44A4DD;}
	.st1{fill-rule:evenodd;clip-rule:evenodd;fill:#C92329;}
	.st2{fill:#45A7DE;}
	.st3{fill-rule:evenodd;clip-rule:evenodd;fill:#00368A;}
	.st4{fill:#377EFC;}
	.st5{fill:#45AE37;}
	.st6{fill:#EE3C18;}
	.st7{fill:#F6BA0C;}
	.st8{fill:#262F36;}
	.st9{clip-path:url(#SVGID_00000087390691263585684310000016605470425154641806_);}
	.st10{clip-path:url(#SVGID_00000111162075276054856050000015914067487077043378_);}
	
		.st11{clip-path:url(#SVGID_00000053535968181116145860000006511211210827879835_);fill:url(#SVGID_00000181800801680819623670000000349986106005097391_);}
	.st12{fill-rule:evenodd;clip-rule:evenodd;fill:#5CD760;}
	.st13{fill:#5CD760;}
	.st14{fill:#AF0014;}
	.st15{fill:#252F3E;}
	.st16{fill-rule:evenodd;clip-rule:evenodd;fill:#FF9900;}
	.st17{fill:#497F8F;}
	.st18{fill:#209BE4;}
	.st19{fill:#005F9F;}
	.st20{fill:#F57917;}
</style>
<g>
	<path class="st4" d="M170.13,62.15h5.42c18.83,0.41,37.36,7.98,50.66,21.39c-4.91,5.02-9.93,9.83-14.74,14.84
		c-7.47-6.75-16.48-11.97-26.3-13.82c-14.53-3.07-30.19-0.31-42.37,7.98c-13.31,8.7-22.31,23.44-24.26,39.2
		c-2.15,15.56,2.25,31.93,12.38,44.01c9.72,11.77,24.56,19.14,39.92,19.65c14.33,0.82,29.27-3.58,39.71-13.61
		c8.19-7.06,11.97-17.81,13.2-28.25c-16.99,0-33.98,0.1-50.97,0v-21.08h71.54c3.68,22.62-1.64,48.1-18.83,64.27
		c-11.46,11.46-27.33,18.22-43.5,19.55c-15.66,1.54-31.83-1.43-45.75-9.01c-16.68-8.9-29.99-23.95-36.54-41.66
		c-6.14-16.27-6.24-34.7-0.51-51.07c5.22-14.94,15.25-28.15,28.15-37.36C139.73,68.09,154.78,63.07,170.13,62.15z"/>
	<path class="st5" d="M580.54,67.47h21.9v146.15c-7.27,0-14.64,0.1-21.9-0.1C580.64,164.91,580.54,116.19,580.54,67.47L580.54,67.47
		z"/>
	<path class="st6" d="M293.05,118.13c13.51-2.56,28.15,0.31,39.3,8.39c10.13,7.16,17.19,18.42,19.34,30.7
		c2.76,14.23-0.72,29.78-9.93,41.04c-9.93,12.59-26.2,19.34-42.06,18.32c-14.53-0.82-28.66-8.09-37.25-19.96
		c-9.72-13.1-12.08-31.11-6.75-46.47C261.01,133.69,276.06,121.1,293.05,118.13 M296.12,137.58c-5.53,1.43-10.64,4.61-14.33,9.11
		c-9.93,11.87-9.31,31.22,1.64,42.27c6.24,6.35,15.66,9.31,24.36,7.57c8.09-1.43,15.15-6.86,19.04-14.02
		c6.75-12.18,4.81-28.96-5.53-38.48C314.64,137.89,304.92,135.33,296.12,137.58L296.12,137.58z"/>
	<path class="st7" d="M401.54,118.13c15.45-2.97,32.34,1.33,43.91,12.18c18.83,16.89,20.88,48.51,4.81,67.96
		c-9.72,12.28-25.48,19.04-41.04,18.32c-14.84-0.41-29.48-7.78-38.28-19.96c-9.93-13.41-12.08-31.83-6.45-47.49
		C370.12,133.18,384.85,121,401.54,118.13 M404.61,137.58c-5.53,1.43-10.64,4.61-14.33,9.01c-9.83,11.67-9.42,30.7,1.13,41.86
		c6.24,6.65,15.97,9.93,24.97,8.09c7.98-1.54,15.15-6.86,19.04-14.02c6.65-12.28,4.71-29.07-5.73-38.58
		C423.03,137.79,413.31,135.33,404.61,137.58L404.61,137.58z"/>
	<path class="st4" d="M493.55,124.07c11.77-7.37,27.43-9.42,40.12-3.07c3.99,1.74,7.27,4.71,10.44,7.68c0.1-2.76,0-5.63,0.1-8.49
		c6.86,0.1,13.71,0,20.67,0.1v90.27c-0.1,13.61-3.58,28.04-13.41,37.97c-10.75,10.95-27.22,14.33-42.06,12.08
		c-15.86-2.35-29.68-13.92-35.82-28.55c6.14-2.97,12.59-5.32,18.93-8.09c3.58,8.39,10.85,15.56,19.96,17.19
		c9.11,1.64,19.65-0.61,25.59-8.19c6.35-7.78,6.35-18.42,6.04-27.94c-4.71,4.61-10.13,8.7-16.68,10.23
		c-14.23,3.99-29.89-0.92-40.84-10.54c-11.05-9.62-17.6-24.46-16.99-39.2C469.9,148.84,479.32,132.77,493.55,124.07 M514.73,137.17
		c-6.24,1.02-12.08,4.5-16.07,9.31c-9.62,11.46-9.62,29.78,0.1,41.04c5.53,6.65,14.43,10.34,23.03,9.42
		c8.09-0.82,15.56-5.94,19.55-13c6.75-11.97,5.63-28.25-3.48-38.69C532.23,138.81,523.23,135.64,514.73,137.17L514.73,137.17z"/>
	<path class="st6" d="M628.75,129.29c12.28-11.46,31.22-15.35,46.98-9.31c14.94,5.63,24.46,19.86,29.27,34.49
		c-22.21,9.21-44.32,18.32-66.53,27.53c3.07,5.83,7.78,11.16,14.12,13.31c8.9,3.17,19.55,2.05,27.02-3.89
		c2.97-2.25,5.32-5.22,7.57-8.09c5.63,3.79,11.26,7.47,16.89,11.26c-7.98,11.97-21.39,20.37-35.82,21.7
		c-15.97,1.94-32.96-4.2-43.29-16.68C607.97,179.95,609.61,147,628.75,129.29 M639.7,148.22c-3.48,5.02-4.91,11.16-4.81,17.19
		c14.84-6.14,29.68-12.28,44.52-18.52c-2.46-5.73-8.39-9.21-14.43-10.13C655.26,135.02,645.12,140.24,639.7,148.22z"/>
</g>
</svg>
