<?xml version="1.0" encoding="utf-8"?>
<!-- Generator: Adobe Illustrator 28.0.0, SVG Export Plug-In . SVG Version: 6.00 Build 0)  -->
<svg version="1.1" id="Capa_1" xmlns="http://www.w3.org/2000/svg" xmlns:xlink="http://www.w3.org/1999/xlink" x="0px" y="0px"
	 viewBox="0 0 800 323.41" style="enable-background:new 0 0 800 323.41;" xml:space="preserve">
<style type="text/css">
	.st0{fill:#44A4DD;}
	.st1{fill-rule:evenodd;clip-rule:evenodd;fill:#C92329;}
	.st2{fill:#45A7DE;}
	.st3{fill-rule:evenodd;clip-rule:evenodd;fill:#00368A;}
	.st4{fill:#377EFC;}
	.st5{fill:#45AE37;}
	.st6{fill:#EE3C18;}
	.st7{fill:#F6BA0C;}
	.st8{fill:#262F36;}
	.st9{clip-path:url(#SVGID_00000009562784038988626130000016697778547875744385_);}
	.st10{clip-path:url(#SVGID_00000015342342526176667160000000405561913018950329_);}
	
		.st11{clip-path:url(#SVGID_00000092432643252297163060000015320511655810542769_);fill:url(#SVGID_00000111890334140381020250000006380336811577321365_);}
	.st12{fill-rule:evenodd;clip-rule:evenodd;fill:#5CD760;}
	.st13{fill:#5CD760;}
	.st14{fill:#AF0014;}
	.st15{fill:#252F3E;}
	.st16{fill-rule:evenodd;clip-rule:evenodd;fill:#FF9900;}
	.st17{fill:#497F8F;}
	.st18{fill:#209BE4;}
	.st19{fill:#005F9F;}
	.st20{fill:#F57917;}
</style>
<g>
	<path class="st2" d="M178.97,89.48c6.18-0.96,13.03-1.1,18.52,2.39c7.93,4.71,12.45,13.26,15.58,21.63
		c8.79,24.16,9.63,50.58,5.94,75.83c-0.83,6.46-3.3,13.77-9.64,16.71c-3.75,1.26-8.55,0.93-11.15-2.4
		c-4.2-5.08-2.88-12.08-2.53-18.12c1.36-9.54,1.89-19.22,1.45-28.84c-0.04-4.39-1.51-9.14-5.28-11.73
		c-3.18-2.4-7.77-1.94-10.92,0.26c-5.34,3.46-8.84,9.04-11.7,14.59c-7.03,14.47-10.92,30.16-16.16,45.3
		c-2.63,7.04-6.87,13.74-13.16,18.03c-7.54,5.31-17.12,6.72-26.15,6.39c-11.53-0.55-21.91-7.79-27.96-17.37
		c-7.54-12.19-14.26-24.88-21.62-37.18c-2.34-3.58-5.49-8.15-10.37-7.63c-5.13,0.48-7.07,6.21-6.9,10.64
		c0.36,15.17,7.7,28.99,10.32,43.75c0.91,4.55-0.39,10.27-4.98,12.33c-2.8,0.39-5.74,0.74-8.52,0.01c-4.08-1.55-6.19-5.76-8.02-9.43
		c-6.36-15.26-10.33-31.45-12.37-47.82c0.29-8.39-0.5-16.89,1.28-25.17c2.43-13.51,6.14-27.8,16.16-37.78
		c8.63-8.74,23.48-11.34,33.95-4.45c10.15,7.04,16.43,17.97,23.1,28.07c4.89,7.78,9.45,16.93,18.43,20.67
		c6.19,3.01,14.13,1.16,18.68-3.9c3.26-3.36,4.88-7.85,6.6-12.12c3.66-9.18,7.32-18.34,11.33-27.37
		C157.46,103.24,166.45,92.48,178.97,89.48L178.97,89.48z M627.96,118.6c4.68-0.36,9.38-0.15,14.06,0.01
		c0.35,4.7-0.29,9.44,0.43,14.12c4.79-0.16,9.6-0.3,14.39,0.08c0.13,4.16,0.58,8.38-0.31,12.49c-4.78-0.09-9.54-0.06-14.31,0.03
		c-0.23,10.05-0.05,20.13-0.11,30.19c0.05,4.26-0.01,9.17,3.24,12.39c3.23,3.09,8.08,2.61,12.2,2.99c0.59,4.31,0.64,8.72-0.16,13
		c-7.84,0.09-16.47-0.06-22.87-5.24c-5.75-4.58-7.39-12.29-7.58-19.28c-0.11-18.76,0.08-37.53-0.08-56.28
		C627.19,121.72,626.1,119.09,627.96,118.6z M273.76,138.06c7.09-6.36,17.19-7.15,26.29-6.82c7.4-0.03,14.83,2.01,20.67,6.64
		c6.54-6.79,16.68-6.82,25.43-6.64c7.99,0,16.53,2.38,21.92,8.6c3.98,4.66,4.71,11.04,4.84,16.94c0.05,12.47,0,24.93,0.02,37.41
		c-0.02,3.24,0.35,6.57-0.68,9.69c-4.65-0.2-9.3,0.21-13.93-0.24l-0.49-0.7c-0.5-16.24,0.45-32.54-0.53-48.77
		c0.09-5.21-4.74-9.04-9.64-9.39c-5.59-0.35-12.09-1.03-16.66,2.94c-3.4,2.8-3,7.59-3.21,11.55c-0.15,12.9-0.09,25.82-0.05,38.73
		c-0.31,1.81,0.59,4.4-0.98,5.73c-4.74,0.16-9.54,0.34-14.27-0.21c0-16.47,0.39-32.94-0.4-49.39c-0.03-5.55-5.56-9.28-10.7-9.43
		c-4.71-0.24-9.84-0.61-14.09,1.81c-2.75,1.53-4.41,4.55-4.49,7.67c-1.08,16.53-0.06,33.11-0.69,49.66c-4.79,0-9.58-0.04-14.36,0.04
		c-0.48-2.31-0.68-4.66-0.6-7.02c0.16-13.79-0.13-27.59,0.14-41.37C267.4,149.22,268.83,142.39,273.76,138.06L273.76,138.06z
		 M404.4,132.67c11-2.18,23.21-2.63,33.55,2.39c9.73,4.99,12.18,16.87,12.58,26.85c0.15,10.95,0.81,22.93-5.19,32.62
		c-5.58,8.74-16.94,10.75-26.55,10.53c-9.2,0.25-19.67-1.06-26.12-8.34c-6.98-8.7-6.92-20.61-6.93-31.2
		c0.28-8.67,1.05-18.14,6.49-25.28C395.24,136.37,399.75,133.96,404.4,132.67 M410.67,145.09c-4.35,0.93-7.54,4.74-8.39,8.99
		c-1.55,9.22-1.57,18.64-0.05,27.87c0.86,3.63,2.93,7.42,6.68,8.64c5.6,1.85,11.78,1.75,17.48,0.38c4.15-0.85,6.79-4.7,7.74-8.59
		c1.7-9.45,1.63-19.17-0.01-28.62c-1.11-4.36-4.56-8.2-9.18-8.84C420.21,144.35,415.36,144.26,410.67,145.09z M573.04,134.77
		c10.24-5.11,22.27-3.74,33.2-2.1c1.41,0.55,4.24,0.05,4.51,2.09c0.18,3.44,0.14,6.9,0.06,10.35c-0.44,0.18-1.31,0.54-1.75,0.71
		c-7.92-1.38-16.06-2.79-24.08-1.51c-3.15,0.54-7.17,2.43-7.12,6.15c-0.71,3.18,2.05,5.39,4.55,6.62
		c8.8,4.04,18.78,5.91,26.56,11.97c6.51,4.96,7.17,14.28,5.09,21.61c-3.29,9.3-13.46,13.72-22.68,14.22
		c-8.78,0.4-17.99,0.16-26.2-3.24c-1.56-3.85-0.58-8.38-0.44-12.48c9.95,2.4,20.65,5.03,30.71,1.76c5.15-1.36,7.04-8.85,2.58-12.08
		c-8.93-5.48-20.05-6.54-28.55-12.83C559.67,158.09,561.84,140.41,573.04,134.77L573.04,134.77z M674.72,135.54
		c-0.45-1.81,1.54-2.86,3.03-2.94c10.29-1.39,20.87-2.24,31.11,0.01c6.55,1.66,12.97,5.68,15.79,12.05
		c3.58,7.72,2.21,16.41,2.48,24.62c-0.18,8.1,0.91,16.73-2.69,24.3c-3.48,7.25-11.9,10.27-19.37,11.23
		c-9.32,0.58-19.31,0.69-27.7-3.99c-13.81-7.73-13.27-31.24,0.84-38.38c10.4-5.49,22.6-3.7,33.78-2.43c0.3-5.25-0.54-11.8-6-14.17
		c-10.04-3.89-20.87-0.64-31.22-0.73C674.73,141.93,674.61,138.72,674.72,135.54 M684.83,188.33c4.18,4.53,10.92,4.19,16.56,3.99
		c3.81-0.14,8.22-1.74,9.75-5.54c1.3-4.55,0.65-9.37,0.86-14.04c-7.12-1.85-14.74-2.3-21.97-0.89
		C682.83,173.16,680.02,183.09,684.83,188.33z M745.87,138.54c7.92-7.98,20.15-7.78,30.57-7.04c0.3,4.23,0.21,8.47-0.08,12.69
		c-5.76,0.99-12.47-1.15-17.46,2.68c-3.08,2.24-3.4,6.38-3.5,9.85c-0.29,15.61,0,31.22-0.15,46.83c-4.89,0.64-9.82,0.11-14.72,0.39
		c-1.2-12.7-0.19-25.56-0.53-38.33C740.26,156.44,738.8,145.69,745.87,138.54z M458.85,132.76c5.28-0.09,10.64-0.68,15.86,0.39
		c1.26,19.34,6.74,38.36,15.29,55.72c1.46-1.89,2.38-4.11,3.26-6.31c6.7-15.66,11.34-32.36,12.27-49.43
		c5.19-1,10.52-0.49,15.77-0.33c-0.7,24.61-11.03,47.66-22.11,69.21c-0.78,2.33-3.51,1.74-5.36,1.86
		c-3.88-0.13-7.78,0.26-11.62-0.26l-1.25-1.55C469.38,180.68,459.51,157.43,458.85,132.76L458.85,132.76z M533.81,132.82
		c5-0.38,10.04-0.33,15.06-0.05c0.21,23.5,0.35,47.04-0.05,70.53c-4.63,1.34-9.84,0.13-14.68,0.59
		C533.88,180.22,533.49,156.51,533.81,132.82z"/>
</g>
</svg>
