<?xml version="1.0" encoding="utf-8"?>
<!-- Generator: Adobe Illustrator 28.0.0, SVG Export Plug-In . SVG Version: 6.00 Build 0)  -->
<svg version="1.1" id="Capa_1" xmlns="http://www.w3.org/2000/svg" xmlns:xlink="http://www.w3.org/1999/xlink" x="0px" y="0px"
	 viewBox="0 0 800 323.41" style="enable-background:new 0 0 800 323.41;" xml:space="preserve">
<style type="text/css">
	.st0{fill:#44A4DD;}
	.st1{fill-rule:evenodd;clip-rule:evenodd;fill:#C92329;}
	.st2{fill:#45A7DE;}
	.st3{fill-rule:evenodd;clip-rule:evenodd;fill:#00368A;}
	.st4{fill:#377EFC;}
	.st5{fill:#45AE37;}
	.st6{fill:#EE3C18;}
	.st7{fill:#F6BA0C;}
	.st8{fill:#262F36;}
	.st9{clip-path:url(#SVGID_00000156585567244205373340000013584352257716792989_);}
	.st10{clip-path:url(#SVGID_00000083789511197058695120000008283701995408284555_);}
	
		.st11{clip-path:url(#SVGID_00000034801950761562628530000015040632670686695838_);fill:url(#SVGID_00000076580322833945483930000005593442670073769630_);}
	.st12{fill-rule:evenodd;clip-rule:evenodd;fill:#5CD760;}
	.st13{fill:#5CD760;}
	.st14{fill:#AF0014;}
	.st15{fill:#252F3E;}
	.st16{fill-rule:evenodd;clip-rule:evenodd;fill:#FF9900;}
	.st17{fill:#497F8F;}
	.st18{fill:#209BE4;}
	.st19{fill:#005F9F;}
	.st20{fill:#F57917;}
</style>
<g id="_x23_005f9fff" transform="translate(-40.387485,-24.31156)">
	<path id="path6" class="st19" d="M166.59,102.77c16.93-4.06,35.33-3.2,51.46,3.64c15.52,6.51,27.77,19.77,33.79,35.42
		c5.71,13.98,6.38,29.34,5.82,44.25c-0.17,3.49-3.71,5.94-7.06,5.7c-26.92,0.03-53.86,0-80.78,0.01c-4.5,0.05-9.05-0.35-13.48,0.6
		c-1.3,9.19,2.45,18.86,9.38,24.99c6.47,5.92,15.4,8.51,24.04,8.74c7.71,0.15,15.66-0.46,22.73-3.78c4.69-2.09,8.71-5.29,12.9-8.19
		c1.56-1.21,4.09-2.02,5.5-0.16c6.24,6.04,13,11.54,18.97,17.83c1.93,2.38-0.75,4.96-2.6,6.35c-18.22,13.48-40.82,22.68-63.83,20.57
		c-17.01-0.94-34.65-6.09-47.03-18.33c-12.21-11.67-17.89-28.49-19.78-44.91c-2.23-21.07-0.61-43.5,9.91-62.33
		C134.85,118.01,149.76,106.77,166.59,102.77 M162.34,144.02c-4.39,6.1-6.2,13.7-6.5,21.13c20.63-0.02,41.25-0.01,61.88-0.01
		c-0.57-7.49-2.16-15.22-6.78-21.32C199.66,128.63,173.48,128.76,162.34,144.02z"/>
	<path id="path8" class="st19" d="M578.13,124.02c-0.09-1.95,0.21-4.75,2.68-4.95c5.61-0.26,11.23-0.12,16.84-0.07
		c1.53-0.06,3.19,1.29,3.11,2.88c0.24,5.25,0,10.52,0.07,15.78c4.86,0.07,9.74-0.14,14.6,0.06c1.7-0.16,3.08,1.47,3.01,3.1
		c0.13,4.58,0.07,9.16,0.03,13.74c0.21,1.64-0.79,3.22-2.29,3.85c-4.42,0.63-8.94-0.27-13.36,0.5c-1.67,0.38-1.99,2.43-1.93,3.87
		c-0.01,11.22,0.03,22.45-0.01,33.66c0.08,3.85,0.33,8.37,3.54,11c3.25,2.83,7.85,1.21,11.73,1.89c1.03,0.58,2.24,1.5,2.22,2.81
		c0.21,4.59,0.15,9.21,0.04,13.8c0.05,1.55-1.24,3.33-2.92,3.15c-8.96-0.01-18.85,1.29-26.74-3.94c-7.49-4.67-10.57-13.9-10.6-22.36
		C578.09,176.53,578.18,150.27,578.13,124.02L578.13,124.02z"/>
	<path id="path10" class="st19" d="M725.95,119.23c5.79-0.58,11.66-0.21,17.49-0.21c2.14-0.13,3.46,2.02,3.13,3.97
		c0.03,24.49,0,48.98,0.01,73.47c0.15,4.03,0.3,8.97,4.07,11.41c3.98,2.89,9.57-0.29,13.51,2.41c1.55,3.17,0.49,6.93,0.82,10.34
		c-0.28,2.75,0.89,6.38-1.74,8.3c-9.59,0.23-20.21,1.67-28.73-3.81c-7.49-4.68-10.68-13.9-10.59-22.39
		c-0.02-26.21,0.02-52.42-0.02-78.63C723.95,122.32,723.77,119.81,725.95,119.23L725.95,119.23z"/>
	<path id="path12" class="st19" d="M396.52,145.37c10.14-10.33,25.79-13.41,39.67-10.89c10.58,1.67,20.63,7.63,26.44,16.73
		c6.99,10.38,8.42,23.49,7.35,35.68c-0.49,1.95-2.69,2.66-4.49,2.46c-17.84,0-35.69,0-53.53-0.01c-1.33,0.09-3.03-0.23-3.67,1.28
		c-0.26,6.29,2.8,12.78,8.25,16.1c6.35,4.15,14.45,4.07,21.65,2.77c5.5-1.05,9.69-4.99,14.45-7.63c4.42,4.16,9.31,7.9,13.27,12.54
		c-0.06,2.07-1.93,3.18-3.38,4.3c-10.41,7.2-22.87,12.31-35.73,11.57c-11.85-0.24-24.4-3.97-32.37-13.19
		c-8.37-9.6-10.73-22.9-10.66-35.27C383.66,168.74,387.19,154.96,396.52,145.37 M412.8,159.56c-3.25,3.78-4.17,8.86-4.73,13.66
		c12.58,0.01,25.15,0,37.73,0.01c-0.18-7.18-3.34-15.04-10.31-18.09C428.08,151.9,418.12,152.98,412.8,159.56z"/>
	<path id="path14" class="st19" d="M505.87,142.57c8.06-6.47,18.59-10.3,28.97-8.53c9.28,0.96,18.06,6.11,22.95,14.13
		c5.22,8.07,5.21,18.06,5.1,27.32c-0.02,16.44,0,32.88,0,49.32c0.23,1.86-0.8,4.48-3.03,4.29c-6.31,0.13-12.63,0.13-18.93,0
		c-1.75,0.2-3.1-1.55-2.94-3.18c-0.09-17.17,0.05-34.35-0.05-51.51c-0.03-6.48-1.85-13.98-7.87-17.43
		c-5.4-2.79-12.33-2.59-17.59,0.44c-4.83,2.77-7.34,8.44-7.23,13.87c-0.06,17.85,0.01,35.7-0.02,53.54
		c0.21,1.86-0.72,4.41-2.98,4.26c-6.31,0.14-12.64,0.09-18.96,0.02c-2.32,0.22-3.27-2.44-3.02-4.33
		c0.02-28.68-0.02-57.38,0.02-86.07c-0.27-1.86,1.13-3.78,3.04-3.9c4.19-0.22,8.41,0.01,12.62-0.08c2.88,0.03,6.07-0.45,8.49,1.5
		C504.55,138.41,504.04,140.92,505.87,142.57L505.87,142.57z"/>
	<path id="path16" class="st19" d="M662.43,134.36c11.25-1.82,23.4-0.19,33.13,6c8.95,5.7,14.95,15.34,17.17,25.62
		c1.6,6.58,1.44,13.42,1.24,20.13c0.03,2.11-2.18,3.42-4.1,3.21c-15.39,0.08-30.78,0-46.18,0.03c-3.91,0.07-7.92-0.42-11.74,0.65
		c0.18,5.33,1.66,10.91,5.75,14.6c6.41,6.13,16.12,6.43,24.36,4.91c5.41-1.01,9.47-4.92,14.16-7.42c1.61,0.44,2.67,1.92,3.92,2.96
		c3.34,3.46,7.38,6.25,10.22,10.18c-11.4,10.27-27.1,16.41-42.54,14.9c-10.77-0.7-21.88-4.48-29.2-12.73
		c-8.4-9.33-10.93-22.38-10.95-34.59c-0.26-12.55,2.63-25.8,11-35.52C644.63,140.2,653.35,135.78,662.43,134.36 M655.5,161.19
		c-2.34,3.56-3.16,7.84-3.5,12.01c12.62,0.03,25.25,0.02,37.88,0.01c-0.63-4.37-1.33-8.95-3.99-12.61
		C679.04,150.73,661.89,150.93,655.5,161.19z"/>
</g>
<g id="_x23_f57917ff" transform="translate(-40.387485,-24.31156)">
	<path id="path19" class="st20" d="M288.79,110.04c2.93-1.13,6.27-0.27,8.52,1.85c13.91,11.78,23.3,28.43,27.38,46.11
		c5.89,26.03,1.76,54.84-13.8,76.86c-4.4,6.26-9.57,12.07-15.64,16.76c-2.68,2.19-6.97,2.26-9.52-0.21
		c-4.62-4.11-9.24-8.23-13.76-12.46c-2.33-1.83-2.26-5.5,0.16-7.22c14-12.63,22.53-31.11,22.89-49.98
		c0.23-18.46-6.64-37.54-20.72-49.89c-1.57-1.47-4.03-3.35-2.76-5.8c1.77-3.29,5.12-5.29,7.72-7.87
		C282.48,115.54,285.17,112.17,288.79,110.04L288.79,110.04z"/>
</g>
</svg>
