<?xml version="1.0" encoding="utf-8"?>
<!-- Generator: Adobe Illustrator 28.0.0, SVG Export Plug-In . SVG Version: 6.00 Build 0)  -->
<svg version="1.1" id="Capa_1" xmlns="http://www.w3.org/2000/svg" xmlns:xlink="http://www.w3.org/1999/xlink" x="0px" y="0px"
	 viewBox="0 0 800 323.41" style="enable-background:new 0 0 800 323.41;" xml:space="preserve">
<style type="text/css">
	.st0{fill:#44A4DD;}
	.st1{fill-rule:evenodd;clip-rule:evenodd;fill:#C92329;}
	.st2{fill:#45A7DE;}
	.st3{fill-rule:evenodd;clip-rule:evenodd;fill:#00368A;}
	.st4{fill:#377EFC;}
	.st5{fill:#45AE37;}
	.st6{fill:#EE3C18;}
	.st7{fill:#F6BA0C;}
	.st8{fill:#262F36;}
	.st9{clip-path:url(#SVGID_00000160182390635514215170000007462311210046945422_);}
	.st10{clip-path:url(#SVGID_00000111156005903946597530000005993008340887181994_);}
	
		.st11{clip-path:url(#SVGID_00000098912243521054826740000005750217031061704104_);fill:url(#SVGID_00000098210321573884069620000012098719861091400579_);}
	.st12{fill-rule:evenodd;clip-rule:evenodd;fill:#5CD760;}
	.st13{fill:#5CD760;}
	.st14{fill:#AF0014;}
	.st15{fill:#252F3E;}
	.st16{fill-rule:evenodd;clip-rule:evenodd;fill:#FF9900;}
	.st17{fill:#497F8F;}
	.st18{fill:#209BE4;}
	.st19{fill:#005F9F;}
	.st20{fill:#F57917;}
</style>
<g>
	<path class="st17" d="M231.75,137.17c14.86-12.08,17.11-33.91,5.04-48.77c-6.85-8.42-16.83-12.79-26.9-12.8l-32.02,0
		c-7.62,0.04-15.28,2.58-21.65,7.76c-8.43,6.85-12.8,16.84-12.8,26.92l0,0v48.07c0,0,7.4-12.21,26.4-13.46v0.01h6.9
		c0.97,0.04,1.94,0.04,2.91,0h0.38h28.52C216.66,145.22,224.94,142.7,231.75,137.17z"/>
	<path class="st17" d="M241.72,224.46c16.38-13.31,18.87-37.39,5.55-53.77c-7.55-9.29-18.56-14.1-29.66-14.11l-36.23,0
		c-8.4,0.05-16.84,2.84-23.87,8.55c-9.29,7.55-14.11,18.57-14.11,29.68l0,0v53c0,0,8.16-13.46,29.11-14.84v0.01h7.61
		c1.07,0.04,2.14,0.05,3.21,0h0.42h32.36C225.08,233.34,234.21,230.57,241.72,224.46z"/>
	<g>
		<g>
			<path class="st17" d="M282.36,103.27c0-2.99,2.28-5.3,5.29-5.3h19.21c2.99,0,5.28,2.31,5.28,5.3v29.27
				c7.18-2.31,14.26-4.41,24.83-4.41c27.49,0,46.2,16.55,46.2,49c0,32.23-18.54,48.79-54.66,48.79c-16.72,0-37-4.4-46.14-9.68
				V103.27z M312.14,203.21c4.05,1.04,10.92,1.9,18.11,1.9c16.42,0,22.2-8.62,22.2-27.98c0-19.57-5.79-28.21-21.66-28.21
				c-4.4,0-11.48,1.25-18.65,3.52V203.21z"/>
			<path class="st17" d="M398.28,107.84c0-6.16,3.55-9.88,9.73-9.88h10.76c6.13,0,9.47,3.71,9.47,9.88v6.54
				c0,6.17-3.34,9.85-9.47,9.85H408c-6.17,0-9.73-3.68-9.73-9.85V107.84z M403.78,225.22c-3.01,0-5.31-2.27-5.31-5.28v-81.58
				c0-3.02,2.3-5.31,5.31-5.31h19.21c2.99,0,5.27,2.29,5.27,5.31v81.58c0,3.02-2.28,5.28-5.27,5.28H403.78z"/>
			<path class="st17" d="M480.35,225.61c-24.63,0-36.96-12.31-36.96-38.77v-83.58c0-2.99,2.26-5.3,5.27-5.3h19.21
				c3.01,0,5.31,2.31,5.31,5.3v30.77h24.93c3.05,0,5.31,2.3,5.31,5.28v11.85c0,2.99-2.26,5.28-5.31,5.28h-24.93v30.39
				c0,12,6.13,18.35,15.16,18.35c4.53,0,7.91-1.06,11.81-1.06h3.14c3.01,0,5.28,2.28,5.28,5.29v9.15c0,2.64-2.27,4.73-5.28,5.28
				C497.98,224.93,488.34,225.61,480.35,225.61"/>
			<path class="st17" d="M543.79,185.82c1.22,14.1,7.36,20.29,21.4,20.29c7.19,0,13.52-2.14,16.44-5.84
				c2.23-2.83,5.28-4.56,9.55-4.56h12.51c2.94,0,5.13,2.27,5.13,5.27c0,18.33-18.29,24.67-45.7,24.67
				c-30.42,0-48.71-16.95-48.71-48.79c0-31.72,18.48-49,48.71-49c30.48,0,48.77,16.76,48.77,47.75v4.96c0,2.98-2.19,5.27-5.11,5.27
				H543.79z M543.64,167.66h38.83c-0.53-13.2-6.68-20.27-19.36-20.27C550.83,147.38,544.32,154.45,543.64,167.66"/>
			<path class="st17" d="M632.14,225.47c-3.03,0-5.3-2.27-5.3-5.28V103.3c0-2.99,2.28-5.3,5.3-5.3h19.19c2.95,0,5.27,2.31,5.27,5.3
				v116.89c0,3.02-2.32,5.28-5.27,5.28H632.14z"/>
		</g>
	</g>
</g>
</svg>
