<?xml version="1.0" encoding="utf-8"?>
<!-- Generator: Adobe Illustrator 28.0.0, SVG Export Plug-In . SVG Version: 6.00 Build 0)  -->
<svg version="1.1" id="Capa_1" xmlns="http://www.w3.org/2000/svg" xmlns:xlink="http://www.w3.org/1999/xlink" x="0px" y="0px"
	 viewBox="0 0 800 323.41" style="enable-background:new 0 0 800 323.41;" xml:space="preserve">
<style type="text/css">
	.st0{fill:#44A4DD;}
	.st1{fill-rule:evenodd;clip-rule:evenodd;fill:#C92329;}
	.st2{fill:#45A7DE;}
	.st3{fill-rule:evenodd;clip-rule:evenodd;fill:#00368A;}
	.st4{fill:#377EFC;}
	.st5{fill:#45AE37;}
	.st6{fill:#EE3C18;}
	.st7{fill:#F6BA0C;}
	.st8{fill:#262F36;}
	.st9{clip-path:url(#SVGID_00000149357665569240607200000004344890680526220419_);}
	.st10{clip-path:url(#SVGID_00000173878037685116314550000012002778100227304851_);}
	
		.st11{clip-path:url(#SVGID_00000024688844928069329830000006534537282711071104_);fill:url(#SVGID_00000031206096030259688120000012634384303003324804_);}
	.st12{fill-rule:evenodd;clip-rule:evenodd;fill:#5CD760;}
	.st13{fill:#5CD760;}
	.st14{fill:#AF0014;}
	.st15{fill:#252F3E;}
	.st16{fill-rule:evenodd;clip-rule:evenodd;fill:#FF9900;}
	.st17{fill:#497F8F;}
	.st18{fill:#209BE4;}
	.st19{fill:#005F9F;}
	.st20{fill:#F57917;}
</style>
<g>
	<path class="st1" d="M523.56,158.09c-9.12-9.12-20.15-13.57-32.66-13.57c-12.51,0-23.33,4.45-32.24,13.57
		c-9.12,9.12-13.58,20.15-13.58,32.87c0,12.72,4.46,23.76,13.58,32.66c8.91,9.12,19.73,13.79,32.24,13.79
		c12.51,0,23.54-4.67,32.66-13.79c8.91-8.91,13.36-19.94,13.36-32.66C536.92,178.23,532.46,167.2,523.56,158.09L523.56,158.09z
		 M508.07,208.14c-4.67,4.88-10.39,7.21-17.18,7.21c-6.57,0-12.3-2.33-16.96-7.21c-4.67-4.88-7.21-10.61-7.21-17.18
		c0-7,2.54-12.72,7.21-17.39c4.66-4.88,10.39-7.21,16.96-7c6.79-0.21,12.51,2.12,17.39,7c4.45,4.67,6.79,10.39,7,17.39
		C515.08,197.53,512.74,203.26,508.07,208.14L508.07,208.14z"/>
	<path class="st1" d="M200.55,121.82c-15.91-0.21-29.05,5.3-40.08,16.75c-11.24,11.24-16.76,24.6-16.76,40.51
		c0,15.69,5.52,29.48,16.76,40.72c11.03,11.03,24.18,16.55,40.08,16.55c12.72,0,24.39-3.82,34.57-11.67
		c9.97-8.06,16.54-18.03,19.94-30.33h-23.12c-2.91,5.83-7.21,10.85-12.51,14.63c-5.94,3.61-12.09,5.52-18.87,5.52
		c-9.76,0-18.03-3.61-24.81-10.4c-7-7-10.39-15.27-10.18-25.02c-0.21-9.76,3.18-18.03,10.18-25.03
		c6.79-6.79,15.06-10.39,24.81-10.39c6.79,0,12.94,1.91,18.87,5.73c5.3,3.61,9.55,8.7,12.51,14.64h23.12
		c-3.39-12.3-9.97-22.48-19.94-30.33C224.94,125.64,213.28,121.61,200.55,121.82z M340.53,144.3c-14.85-0.21-25.24,3.82-31.18,11.66
		c-3.82,4.88-5.73,11.24-6.36,19.3h22.06c0.42-3.82,1.7-6.36,3.18-8.06c2.33-2.97,6.15-4.45,11.66-4.24
		c4.67-0.21,8.27,0.64,10.82,2.12c2.54,1.27,3.6,3.82,3.82,7.42c0,2.97-1.7,5.3-5.09,6.79l-16.97,2.76
		c-7.85,1.06-14.21,2.97-19.09,5.73c-8.27,4.88-12.3,12.72-12.09,23.97c-0.21,7.85,2.33,14.21,7.42,18.88
		c4.45,3.82,10.6,5.94,18.03,6.15c12.09-0.21,21.63-3.18,28.42-9.12v9.12h22.06v-64.9c0-10.61-3.82-18.03-11.03-21.85
		C358.56,146,350.07,144.09,340.53,144.3L340.53,144.3z M349.86,194.14l4.24-2.33v8.91c0,7.64-2.12,12.94-6.15,15.91
		c-4.24,2.97-8.7,4.45-13.79,4.45c-3.18,0-5.73-0.85-7.85-2.54c-2.12-1.91-3.18-4.67-3.18-8.7c0-4.45,1.7-7.64,5.3-9.97
		c2.12-1.27,5.73-2.33,10.39-2.97L349.86,194.14L349.86,194.14z"/>
	<path class="st1" d="M288.36,121.82H266.3v114.95h22.06V121.82z M428.75,147.48c-5.94,2.33-11.24,6.36-15.69,12.51v-11.24l-21-0.21
		v88.23h21.85v-42.2c0-7.21,0.85-12.3,2.75-15.48c1.48-3.39,4.24-6.15,7.64-8.49c3.82-2.54,7.84-3.82,12.09-3.82l6.79,0.42
		l-0.21-22.48l-5.72,0.42L428.75,147.48L428.75,147.48z M540.74,147.91l53.23-53.23l-13.99-13.99l-53.23,53.23L540.74,147.91z
		 M503.41,126.7V69.65h-19.72v57.05L503.41,126.7L503.41,126.7z M550.49,169.96v19.73h58.32v-19.73H550.49z"/>
</g>
</svg>
