<?xml version="1.0" encoding="utf-8"?>
<!-- Generator: Adobe Illustrator 28.0.0, SVG Export Plug-In . SVG Version: 6.00 Build 0)  -->
<svg version="1.1" id="Capa_1" xmlns="http://www.w3.org/2000/svg" xmlns:xlink="http://www.w3.org/1999/xlink" x="0px" y="0px"
	 viewBox="0 0 800 323.41" style="enable-background:new 0 0 800 323.41;" xml:space="preserve">
<style type="text/css">
	.st0{fill:#44A4DD;}
	.st1{fill-rule:evenodd;clip-rule:evenodd;fill:#C92329;}
	.st2{fill:#45A7DE;}
	.st3{fill-rule:evenodd;clip-rule:evenodd;fill:#00368A;}
	.st4{fill:#377EFC;}
	.st5{fill:#45AE37;}
	.st6{fill:#EE3C18;}
	.st7{fill:#F6BA0C;}
	.st8{fill:#262F36;}
	.st9{clip-path:url(#SVGID_00000148621951317659813660000000461227747142753719_);}
	.st10{clip-path:url(#SVGID_00000072280362736020317280000010970216923073365417_);}
	
		.st11{clip-path:url(#SVGID_00000091708690460402240560000007412198473835867298_);fill:url(#SVGID_00000151523863235430276680000010108246089744116632_);}
	.st12{fill-rule:evenodd;clip-rule:evenodd;fill:#5CD760;}
	.st13{fill:#5CD760;}
	.st14{fill:#AF0014;}
	.st15{fill:#252F3E;}
	.st16{fill-rule:evenodd;clip-rule:evenodd;fill:#FF9900;}
	.st17{fill:#497F8F;}
	.st18{fill:#209BE4;}
	.st19{fill:#005F9F;}
	.st20{fill:#F57917;}
</style>
<g>
	<polygon class="st3" points="166.47,230 171.35,234.77 175.37,230 195.63,230 200.05,223.37 169.1,223.37 168.22,222.4 
		158.63,222.4 158.06,223.37 65.78,223.37 61.44,230 166.47,230 	"/>
	<path class="st3" d="M163.92,216.44H151.2l-3.32-3.34H72.18l4.37-6.67h64.78l0.25-1.47h12.76l0.35,1.47h56.12l-4.44,6.67h-45
		C161.37,213.1,161.66,214.82,163.92,216.44L163.92,216.44z"/>
	<polygon class="st3" points="146.91,196.28 217.62,196.28 221.99,189.64 146.8,189.64 147.82,188.05 125.35,188.05 124.34,189.64 
		87.73,189.64 83.36,196.28 131.25,196.28 134.27,199.16 149.21,199.16 146.91,196.28 	"/>
	<path class="st3" d="M155.33,178.72h73.85l4.39-6.67H159.8l-0.53-1.41h-22.16l-0.84,1.41H99.31l-4.36,6.67h34.26
		c0,0,2.29,0.54,0.69,2.79h22.98L155.33,178.72L155.33,178.72z"/>
	<path class="st3" d="M167.39,161.79h72.71l4.42-6.65h-70.86l-0.43-1.39H148.8l-0.92,1.39h-37.64l-4.38,6.65h35.16
		c0,0,1.81,0.85,0.55,2.62h24.75C166.32,164.41,166.35,163.33,167.39,161.79L167.39,161.79z"/>
	<path class="st3" d="M178.42,147.53H153.3c1.38-2.28-1.97-2.66-1.97-2.66h-34.7l4.33-6.67h38.57l0.96-1.53h25.27l1.1,1.53h68.4
		l-4.43,6.67h-70.92C179.92,144.87,178.85,146.04,178.42,147.53L178.42,147.53z"/>
	<path class="st3" d="M196.04,128.15h66.12l4.38-6.66h-64.86l-1.64-2.88h-27.1l-2.09,2.88h-38.54l-4.38,6.66h34.3
		c0,0,4.09,0.02,2.24,2.75h30.56C195.03,130.9,195.13,129.96,196.04,128.15L196.04,128.15z"/>
	<path class="st3" d="M202.63,104.74h74.66l-4.4,6.65h-63.72c-1.79,0-3,2.8-3,2.8h-30.22c1.53-2.65-1.83-2.8-1.83-2.8h-35.43
		l4.32-6.65h55.81l2.34-2.15l5.61-7.56h-1.35l5.02-6.47h3.83l-4.66,6.47h-1.14l-6.11,7.83L202.63,104.74L202.63,104.74z"/>
	<path class="st3" d="M320.85,105.07l-17.55,26.36h-14.33l-12.09,17.99h15.04l-42.88,64.45c0,0-3.32,5.13-3.32,12.48
		c0,7.31,9.18,8.42,9.18,8.42h32.62l10.28-18.68h-16.15c0,0-6.24-0.73-3.33-5.81c2.96-5.18,40.46-60.86,40.46-60.86h18.92
		l10.38-17.99h-17.32l17.4-26.36H320.85L320.85,105.07z"/>
	<polygon class="st3" points="422.61,234.77 505.55,105.07 477.8,105.07 394.9,234.77 422.61,234.77 	"/>
	<polygon class="st3" points="655.64,234.77 738.56,105.07 710.88,105.07 627.95,234.77 655.64,234.77 	"/>
	<path class="st3" d="M409.9,192.65h-66.71c0,0-6.8,8.31-7.56,15.38c0,0,0,5.84,7.08,5.84c7.1,0,51.32,0,51.32,0l-13.45,20.9H338.8
		c0,0-31.72,0-31.72-18.68c0,0-0.3-13.95,22.96-46.36c23.28-32.45,39.21-33.69,65.95-33.69c26.74,0,33.99,8.48,33.15,15.54
		C428.24,159.62,427.31,163.85,409.9,192.65L409.9,192.65z M354.58,174.49h43.98c0,0,4.92-8.43,6.39-15.38
		c1.51-6.97-6.56-8.81-15.56-8.81C380.45,150.29,366.67,151.23,354.58,174.49L354.58,174.49z"/>
	<path class="st3" d="M640.51,192.65h-66.7c0,0-6.81,8.31-7.55,15.38c0,0,0,5.84,7.07,5.84c7.08,0,51.35,0,51.35,0l-13.47,20.9
		h-41.77c0,0-31.75,0-31.75-18.68c0,0-0.33-13.95,22.97-46.36c23.27-32.45,39.2-33.69,65.94-33.69c26.75,0,33.96,8.48,33.2,15.54
		C658.87,159.62,657.93,163.85,640.51,192.65L640.51,192.65z M585.21,174.49h43.97c0,0,4.94-8.43,6.41-15.38
		c1.48-6.97-6.58-8.81-15.56-8.81C611.05,150.29,597.29,151.23,585.21,174.49L585.21,174.49z"/>
	<path class="st3" d="M478.37,208.03c0,0,0,5.84,7.03,5.84c7.11,0,44.74,0,44.74,0l-13.44,20.9h-35.17c0,0-34.22,1.07-31.72-18.68
		c0,0-0.36-13.95,22.92-46.36c0,0,21.08-33.69,66.54-33.69c45.46,0,30.06,0,30.06,0l-13.58,20.67c0,0-22,0-24.19,0
		c-2.21,0-19.77,1.83-35.52,19.43C480.29,193.73,479.03,202.13,478.37,208.03L478.37,208.03z"/>
	<path class="st3" d="M666.31,234.86l5.43-8.55h1.99l-1.67,7.22l7.55-7.22h1.96l-5.45,8.55h-1.31l3.2-5.07
		c0.14-0.14,0.31-0.44,0.57-0.85c0.27-0.38,0.55-0.83,0.85-1.29l-7.51,7.2h-1.37l1.64-7.2l-0.16,0.27c-0.15,0.18-0.35,0.51-0.6,0.95
		c-0.25,0.42-0.48,0.73-0.59,0.91l-3.22,5.07H666.31L666.31,234.86z"/>
	<polygon class="st3" points="678.65,234.86 679.45,233.6 680.92,233.6 680.11,234.86 678.65,234.86 	"/>
	<path class="st3" d="M690.96,227.31h3.38c0.48,0,0.81,0.04,1.03,0.17c0.38,0.22,0.38,0.63,0,1.23c-0.36,0.59-0.8,0.99-1.33,1.2
		c-0.51,0.21-1.08,0.32-1.74,0.32h-3.21L690.96,227.31L690.96,227.31z M686.15,234.86l2.32-3.66h3.17c0.57,0,0.94,0.05,1.14,0.15
		c0.35,0.2,0.35,0.57,0.02,1.11l-0.82,1.42c-0.2,0.35-0.31,0.56-0.35,0.7c-0.06,0.09-0.08,0.21-0.08,0.27h1.69l0.13-0.2
		c-0.15-0.08-0.21-0.25-0.09-0.52c0.02-0.14,0.15-0.42,0.34-0.72l0.69-1.17c0.29-0.48,0.4-0.83,0.34-1.05
		c-0.07-0.24-0.25-0.4-0.54-0.54c0.55-0.21,1.08-0.47,1.54-0.79c0.46-0.33,0.86-0.76,1.17-1.24c0.63-1.02,0.6-1.65-0.14-2.02
		c-0.4-0.21-0.97-0.3-1.76-0.3h-4.72l-5.45,8.55H686.15L686.15,234.86z"/>
	<polygon class="st3" points="695.31,234.86 696.13,233.6 697.58,233.6 696.76,234.86 695.31,234.86 	"/>
</g>
</svg>
