<?xml version="1.0" encoding="utf-8"?>
<!-- Generator: Adobe Illustrator 28.0.0, SVG Export Plug-In . SVG Version: 6.00 Build 0)  -->
<svg version="1.1" id="Capa_1" xmlns="http://www.w3.org/2000/svg" xmlns:xlink="http://www.w3.org/1999/xlink" x="0px" y="0px"
	 viewBox="0 0 800 323.41" style="enable-background:new 0 0 800 323.41;" xml:space="preserve">
<style type="text/css">
	.st0{fill:#44A4DD;}
	.st1{fill-rule:evenodd;clip-rule:evenodd;fill:#C92329;}
	.st2{fill:#45A7DE;}
	.st3{fill-rule:evenodd;clip-rule:evenodd;fill:#00368A;}
	.st4{fill:#377EFC;}
	.st5{fill:#45AE37;}
	.st6{fill:#EE3C18;}
	.st7{fill:#F6BA0C;}
	.st8{fill:#262F36;}
	.st9{clip-path:url(#SVGID_00000049212271230634102670000017667165035444477844_);}
	.st10{clip-path:url(#SVGID_00000052080378953720678190000010500677605946102933_);}
	
		.st11{clip-path:url(#SVGID_00000142870506210386900960000003272353762808331408_);fill:url(#SVGID_00000164505585958881530990000005433022017921141439_);}
	.st12{fill-rule:evenodd;clip-rule:evenodd;fill:#5CD760;}
	.st13{fill:#5CD760;}
	.st14{fill:#AF0014;}
	.st15{fill:#252F3E;}
	.st16{fill-rule:evenodd;clip-rule:evenodd;fill:#FF9900;}
	.st17{fill:#497F8F;}
	.st18{fill:#209BE4;}
	.st19{fill:#005F9F;}
	.st20{fill:#F57917;}
</style>
<g>
	<path class="st18" d="M298.7,117.63c0,0-0.98,12.91,7.04,18.59c0,0,6.85,4.5,13.69,3.91c0,0,13.11,0.25,15.85-11.22
		c0,0,1.96-8.14-2.93-15.97c0,0-11.93-22.5-40.3-22.5c0,0-28.37-2.93-58.49,26.21c0,0-18.59,16.43-27.78,41.47
		c0,0-9.19,22.69,0,47.15c0,0,12.32,32.47,52.43,34.04c0,0,39.52,3.13,86.08-40.89c0,0,2.35-2.15,1.96,1.76l-4.7,11.54
		c0,0-1.56,6.06,0.78,8.8c0,0,5.87,8.41,10.37,8.8c0,0,3.13,1.76,6.85-1.37l33.45-37.76c0,0,3.33-3.13,4.89-3.13
		c0,0,1.17-0.78,0.98,3.13c0,0-3.52,11.93-4.3,26.02c0,0-1.37,17.9,15.26,23.13c0,0,7.43,1.91,13.11-3.37c0,0,9.78-8.61,19.37-23.08
		c0,0,5.28-6.65,6.06-6.46c0,0,4.5,26.02,32.67,26.8c0,0,18.59,0,36.39-15.26l19.76-14.87c0,0,3.52-2.35,1.96-7.04
		c0,0-3.52-4.5-4.89-5.28c0,0-1.76-1.76-6.06,1.37c0,0-18.59,14.87-32.08,19.37c0,0-16.63,8.41-23.28-5.28c0,0-4.89-6.85,0.2-22.11
		c0,0,16.82-39.52,21.71-48.91l35.6-5.09c0,0,3.72-0.39,4.11-4.5c0,0,0.39-4.3-1.17-9.19c0,0-0.78-1.96-5.28-2.15l-24.45,3.13
		c0,0,3.13-10.37,8.02-19.37c0,0,2.93-5.25-1.96-7.71c0,0-9.78-2.04-15.65,0c0,0-2.54,1.45-4.5,4.97l-10.76,24.85l-39.91,4.3
		c0,0-6.65,0-3.72,6.06c0,0,3.72,8.61,6.65,10.37c0,0,0.39,1.17,5.87,0.98l20.93-2.93c0,0-28.95,44.02-49.49,66.32
		c0,0-0.2-5.67,1.76-11.15l5.87-22.11c0,0,1.56-5.09-1.57-9.39c0,0-3.52-6.06-10.17-8.02c0,0-6.46-2.35-14.87,3.91
		c0,0-9.98,5.48-21.72,16.63l-1.76,0.2c0,0-0.39-5.87,0.98-7.83c0,0,1.37-5.48-2.15-7.83c0,0-5.48-5.48-12.52-8.02
		c0,0-3.91-1.17-5.28,0l-3.13,10.56c0,0-0.78,3.52-8.8,11.74c0,0-38.73,38.93-73.95,45.58c0,0-12.91,1.37-17.8-1.17
		c0,0-28.17-7.82-28.37-38.15c0,0-2.35-19.95,27.58-49.89C253.11,130.35,281.48,105.7,298.7,117.63z"/>
	<path class="st18" d="M553.99,131.72c0,0-0.98,3.91,3.13,1.57c0,0,31.69-22.3,34.24-25.82c0,0,15.65-18.39,0-37.56
		c0,0-18.98-23.67-45,0c0,0-15.45,17.41,0,37.37c0,0,2.15,3.33,7.04,6.46c0,0,4.89,1.96,3.91,6.85L553.99,131.72z"/>
</g>
</svg>
