<?xml version="1.0" encoding="utf-8"?>
<!-- Generator: Adobe Illustrator 28.0.0, SVG Export Plug-In . SVG Version: 6.00 Build 0)  -->
<svg version="1.1" id="Capa_1" xmlns="http://www.w3.org/2000/svg" xmlns:xlink="http://www.w3.org/1999/xlink" x="0px" y="0px"
	 viewBox="0 0 800 323.41" style="enable-background:new 0 0 800 323.41;" xml:space="preserve">
<style type="text/css">
	.st0{fill:#44A4DD;}
	.st1{fill-rule:evenodd;clip-rule:evenodd;fill:#C92329;}
	.st2{fill:#45A7DE;}
	.st3{fill-rule:evenodd;clip-rule:evenodd;fill:#00368A;}
	.st4{fill:#377EFC;}
	.st5{fill:#45AE37;}
	.st6{fill:#EE3C18;}
	.st7{fill:#F6BA0C;}
	.st8{fill:#262F36;}
	.st9{clip-path:url(#SVGID_00000169520022115250527980000001708437724582881709_);}
	.st10{clip-path:url(#SVGID_00000147181365218381558680000000315278542777084811_);}
	
		.st11{clip-path:url(#SVGID_00000023993030770925482000000017120820488253757629_);fill:url(#SVGID_00000015315401643515535470000003760808211953029297_);}
	.st12{fill-rule:evenodd;clip-rule:evenodd;fill:#5CD760;}
	.st13{fill:#5CD760;}
	.st14{fill:#AF0014;}
	.st15{fill:#252F3E;}
	.st16{fill-rule:evenodd;clip-rule:evenodd;fill:#FF9900;}
	.st17{fill:#497F8F;}
	.st18{fill:#209BE4;}
	.st19{fill:#005F9F;}
	.st20{fill:#F57917;}
</style>
<g>
	<path d="M613.78,203.12c-1.35,0-2.27-0.93-2.27-2.27v-66.61h-22.63c-1.35,0-2.27-0.93-2.27-2.27v-9.19c0-1.35,0.93-2.28,2.27-2.28
		h60.24c1.34,0,2.27,0.93,2.27,2.28v9.19c0,1.34-0.93,2.27-2.27,2.27h-22.63v66.61c0,1.34-0.93,2.27-2.27,2.27H613.78z
		 M440.44,169.86l-11.88-34.08l-11.99,34.08H440.44z M466.78,200.43c0.52,1.35-0.31,2.69-1.76,2.69h-10.74c-1.55,0-2.48-0.72-3-2.17
		l-6.09-17.55h-33.37l-6.1,17.55c-0.51,1.45-1.45,2.17-2.99,2.17h-10.12c-1.35,0-2.28-1.35-1.76-2.69l28-77.86
		c0.52-1.45,1.45-2.07,2.99-2.07h13.84c1.55,0,2.58,0.62,3.1,2.07L466.78,200.43z M547.04,191.96c6.61,0,11.05-3.2,14.67-8.67
		l-16.73-17.97c-6.41,3.62-10.54,7.23-10.54,14.46C534.43,186.91,540.22,191.96,547.04,191.96 M551.69,131.44
		c-5.37,0-8.47,3.41-8.47,7.95c0,3.51,1.86,6.61,6.09,11.16c7.33-4.24,10.44-6.82,10.44-11.36
		C559.75,134.95,557.06,131.44,551.69,131.44 M597.46,200.23c1.34,1.45,0.52,2.89-1.14,2.89H583.2c-1.76,0-2.69-0.42-3.82-1.76
		l-7.85-8.67c-5.27,7.02-12.61,12.29-24.8,12.29c-15.08,0-26.97-9.09-26.97-24.68c0-11.98,6.41-18.39,16.12-23.76
		c-4.76-5.47-6.92-11.26-6.92-16.32c0-12.81,8.99-21.59,22.52-21.59c13.84,0,22.32,8.16,22.32,20.24c0,10.33-7.44,16.11-15.29,20.45
		l11.57,12.5l6.51-11.36c0.83-1.34,1.76-1.86,3.41-1.86h10.02c1.66,0,2.59,1.14,1.56,2.89l-11.57,19.83L597.46,200.23z
		 M494.35,203.12c1.34,0,2.28-0.93,2.28-2.27v-66.61h22.62c1.34,0,2.27-0.93,2.27-2.27v-9.19c0-1.35-0.93-2.28-2.27-2.28h-60.24
		c-1.35,0-2.27,0.93-2.27,2.28v9.19c0,1.34,0.93,2.27,2.27,2.27h22.62v66.61c0,1.34,0.93,2.27,2.27,2.27H494.35z"/>
	<path class="st0" d="M188.59,243.3c17.52,13.56,39.51,21.71,63.38,21.71c26.11,0,49.92-9.69,68.08-25.61
		c0.22-0.19,0.11-0.32-0.11-0.19c-8.15,5.44-31.39,17.33-67.98,17.33c-31.8,0-51.89-7.09-63.24-13.43
		C188.5,243,188.42,243.17,188.59,243.3 M258.98,248.58c25.43,0,53.38-6.93,70.1-20.66c4.57-3.74,8.93-8.72,12.83-15.4
		c2.25-3.85,4.44-8.42,6.23-12.91c0.08-0.22-0.06-0.33-0.22-0.08c-15.54,22.87-60.55,37.14-107.03,37.14
		c-32.85,0-68.2-10.51-82.04-30.56c-0.14-0.19-0.27-0.11-0.19,0.11C171.55,233.61,210.66,248.58,258.98,248.58 M231.19,203.13
		c-52.9,0-77.84-24.64-82.36-41.45c-0.06-0.24-0.22-0.19-0.22,0.03c0,5.66,0.57,12.96,1.54,17.81c0.46,2.36,2.39,6.06,5.2,9.02
		c12.81,13.35,44.74,32.06,100.04,32.06c75.35,0,92.58-25.1,96.09-33.35c2.52-5.9,3.82-16.57,3.82-25.53c0-2.17-0.05-3.9-0.14-5.6
		c0-0.28-0.16-0.3-0.22-0.03C351.19,176.27,286.82,203.13,231.19,203.13 M158.57,117.39c-3.03,6.02-6.39,16.16-7.39,21.42
		c-0.44,2.25-0.25,3.33,0.54,5.01c6.34,13.45,38.41,34.97,113.21,34.97c45.64,0,81.09-11.21,86.83-31.67
		c1.06-3.77,1.11-7.74-0.24-13.1c-1.52-5.99-4.36-12.97-6.77-17.87c-0.08-0.16-0.22-0.14-0.19,0.05
		c0.89,26.83-73.94,44.13-111.7,44.13c-40.9,0-75.02-16.29-75.02-36.87c0-1.98,0.41-3.95,0.92-6.01
		C158.82,117.25,158.66,117.22,158.57,117.39 M320.21,84.44c0.43,0.68,0.65,1.41,0.65,2.38c0,11.48-35.13,31.78-91.05,31.78
		c-41.09,0-48.78-15.24-48.78-24.94c0-3.47,1.33-7.01,4.26-10.61c0.16-0.21,0.02-0.3-0.16-0.14c-5.35,4.53-10.22,9.59-14.55,15.11
		c-2.06,2.6-3.33,4.9-3.33,6.28c0,20.09,50.37,34.65,97.47,34.65c50.19,0,72.58-16.38,72.58-30.78c0-5.15-2-8.15-7.13-13.97
		c-3.33-3.79-6.47-6.87-9.8-9.91C320.21,84.17,320.1,84.28,320.21,84.44 M304.83,72.96c-15.49-9.28-33.47-14.57-52.87-14.57
		c-19.53,0-38.05,5.47-53.6,15c-4.66,2.87-7.29,5.17-7.29,8.13c0,8.71,20.36,18.08,56.49,18.08c35.75,0,63.49-10.26,63.49-20.14
		C311.06,77.1,309,75.45,304.83,72.96"/>
</g>
</svg>
