<?xml version="1.0" encoding="utf-8"?>
<!-- Generator: Adobe Illustrator 28.0.0, SVG Export Plug-In . SVG Version: 6.00 Build 0)  -->
<svg version="1.1" id="Capa_1" xmlns="http://www.w3.org/2000/svg" xmlns:xlink="http://www.w3.org/1999/xlink" x="0px" y="0px"
	 viewBox="0 0 800 323.41" style="enable-background:new 0 0 800 323.41;" xml:space="preserve">
<style type="text/css">
	.st0{fill:#44A4DD;}
	.st1{fill-rule:evenodd;clip-rule:evenodd;fill:#C92329;}
	.st2{fill:#45A7DE;}
	.st3{fill-rule:evenodd;clip-rule:evenodd;fill:#00368A;}
	.st4{fill:#377EFC;}
	.st5{fill:#45AE37;}
	.st6{fill:#EE3C18;}
	.st7{fill:#F6BA0C;}
	.st8{fill:#262F36;}
	.st9{clip-path:url(#SVGID_00000152943457939947663120000000151289375364960943_);}
	.st10{clip-path:url(#SVGID_00000006673211650001297730000006316800772284889253_);}
	
		.st11{clip-path:url(#SVGID_00000155839819568920948400000001006848495392207017_);fill:url(#SVGID_00000133510238319134669340000007168372412804775843_);}
	.st12{fill-rule:evenodd;clip-rule:evenodd;fill:#5CD760;}
	.st13{fill:#5CD760;}
	.st14{fill:#AF0014;}
	.st15{fill:#252F3E;}
	.st16{fill-rule:evenodd;clip-rule:evenodd;fill:#FF9900;}
	.st17{fill:#497F8F;}
	.st18{fill:#209BE4;}
	.st19{fill:#005F9F;}
	.st20{fill:#F57917;}
</style>
<g>
	<circle class="st14" cx="123.64" cy="35.49" r="4.87"/>
	<circle class="st14" cx="123.64" cy="53.37" r="6.47"/>
	<circle class="st14" cx="143.6" cy="71.32" r="6.47"/>
	<circle class="st14" cx="163.6" cy="107.28" r="6.47"/>
	<circle class="st14" cx="143.6" cy="142.89" r="6.47"/>
	<circle class="st14" cx="163.6" cy="161.01" r="6.47"/>
	<circle class="st14" cx="143.6" cy="107.28" r="6.47"/>
	<circle class="st14" cx="183.32" cy="89.23" r="6.47"/>
	<circle class="st14" cx="223.51" cy="107.28" r="6.47"/>
	<circle class="st14" cx="243.6" cy="125.08" r="6.47"/>
	<circle class="st14" cx="183.32" cy="142.89" r="6.47"/>
	<circle class="st14" cx="203.59" cy="89.23" r="6.47"/>
	<circle class="st14" cx="123.64" cy="71.3" r="7.37"/>
	<circle class="st14" cx="163.6" cy="89.23" r="7.37"/>
	<circle class="st14" cx="183.32" cy="107.28" r="7.37"/>
	<circle class="st14" cx="143.6" cy="125.08" r="7.37"/>
	<circle class="st14" cx="183.32" cy="125.08" r="7.37"/>
	<circle class="st14" cx="203.59" cy="125.08" r="7.37"/>
	<circle class="st14" cx="203.59" cy="161.06" r="7.85"/>
	<circle class="st14" cx="243.6" cy="161.06" r="7.85"/>
	<circle class="st14" cx="263.56" cy="178.88" r="7.85"/>
	<circle class="st14" cx="223.39" cy="196.96" r="7.85"/>
	<circle class="st14" cx="243.07" cy="196.96" r="7.85"/>
	<circle class="st14" cx="263.56" cy="215.04" r="7.85"/>
	<circle class="st14" cx="283.53" cy="250.52" r="7.85"/>
	<circle class="st14" cx="323.39" cy="268.58" r="7.85"/>
	<circle class="st14" cx="343.34" cy="250.48" r="7.85"/>
	<circle class="st14" cx="223.39" cy="178.88" r="8.65"/>
	<circle class="st14" cx="263.56" cy="161.06" r="7.08"/>
	<circle class="st14" cx="203.59" cy="178.88" r="7.08"/>
	<circle class="st14" cx="203.59" cy="196.96" r="7.08"/>
	<circle class="st14" cx="283.53" cy="161.06" r="7.08"/>
	<circle class="st14" cx="283.53" cy="178.88" r="7.08"/>
	<circle class="st14" cx="243.56" cy="214.36" r="7.08"/>
	<circle class="st14" cx="263.56" cy="232.78" r="7.08"/>
	<circle class="st14" cx="283.53" cy="232.78" r="7.08"/>
	<circle class="st14" cx="303.41" cy="249.91" r="7.08"/>
	<circle class="st14" cx="323.39" cy="249.91" r="7.08"/>
	<circle class="st14" cx="363.33" cy="232.78" r="7.08"/>
	<circle class="st14" cx="223.51" cy="142.89" r="7.37"/>
	<circle class="st14" cx="243.6" cy="142.81" r="7.37"/>
	<circle class="st14" cx="263.56" cy="142.81" r="6.4"/>
	<circle class="st14" cx="283.53" cy="196.96" r="6.4"/>
	<circle class="st14" cx="283.53" cy="214.36" r="6.4"/>
	<circle class="st14" cx="223.39" cy="232.78" r="6.4"/>
	<circle class="st14" cx="243.6" cy="232.78" r="6.4"/>
	<circle class="st14" cx="263.56" cy="250.52" r="6.4"/>
	<circle class="st14" cx="283.53" cy="268.58" r="6.4"/>
	<circle class="st14" cx="303.41" cy="268.58" r="6.4"/>
	<circle class="st14" cx="343.34" cy="232.78" r="6.4"/>
	<circle class="st14" cx="363.33" cy="250.48" r="6.4"/>
	<circle class="st14" cx="343.34" cy="268.58" r="6.4"/>
	<circle class="st14" cx="383.26" cy="232.78" r="6.4"/>
	<circle class="st14" cx="383.26" cy="214.57" r="6.4"/>
	<circle class="st14" cx="363.33" cy="214.57" r="6.4"/>
	<circle class="st14" cx="323.39" cy="286.4" r="6.4"/>
	<circle class="st14" cx="203.59" cy="214.36" r="6.4"/>
	<circle class="st14" cx="203.59" cy="142.89" r="8.65"/>
	<circle class="st14" cx="223.39" cy="161.06" r="8.65"/>
	<circle class="st14" cx="243.6" cy="178.88" r="8.65"/>
	<circle class="st14" cx="263.56" cy="196.96" r="8.65"/>
	<circle class="st14" cx="223.39" cy="125.08" r="7.37"/>
	<circle class="st14" cx="203.59" cy="107.28" r="7.37"/>
	<circle class="st14" cx="123.64" cy="89.23" r="6.47"/>
	<circle class="st14" cx="143.6" cy="53.37" r="4.87"/>
	<circle class="st14" cx="163.6" cy="71.32" r="4.87"/>
	<circle class="st14" cx="183.32" cy="71.32" r="4.87"/>
	<circle class="st14" cx="203.59" cy="71.32" r="4.87"/>
	<circle class="st14" cx="223.51" cy="89.23" r="4.87"/>
	<circle class="st14" cx="263.56" cy="125.08" r="4.87"/>
	<circle class="st14" cx="283.53" cy="143.18" r="4.87"/>
	<circle class="st14" cx="303.41" cy="232.78" r="4.87"/>
	<circle class="st14" cx="323.39" cy="232.78" r="4.87"/>
	<circle class="st14" cx="343.34" cy="214.57" r="4.87"/>
	<circle class="st14" cx="383.26" cy="250.61" r="4.87"/>
	<circle class="st14" cx="343.34" cy="286.4" r="4.87"/>
	<circle class="st14" cx="123.43" cy="107.28" r="4.87"/>
	<g>
		<path class="st14" d="M369.96,115.77l-37.06,0.22l-6.6,22.01l-21.84-1.21l31.61-97.86l30.39-0.24L398.64,138h-22.01L369.96,115.77
			z M350.99,55.05l-13.82,46.13h28.23l-13.82-46.13H350.99z"/>
		<path class="st14" d="M432.49,37.44v76.02c-0.05,6.81,3.74,7.65,10.11,7.34v13.42c-3.14,2.5-8.85,4.71-12.73,4.71
			c-15.22-0.87-19.39-9.39-18.63-23.54V38.19L432.49,37.44z"/>
		<path class="st14" d="M506.38,132.72c-5.94,2.75-12.93,6.2-21.77,6.2c-23.44,0-24.97-19.24-24.97-28.32V78.56h-8.53v-14.5h1.53
			c5.53,0,10.37-3.68,11.85-9.01l1.53-5.52c1.13-4.07,4.8-6.92,9.02-7.01l5.92-0.13v20.77l22.21-0.05l-1.3,15.45h-20.91v31.32
			c0,9.53,2.08,12.93,9.19,12.93c4.06,0,9.16-1.75,12.21-2.91L506.38,132.72z"/>
		<path class="st14" d="M593.63,121.33v12.64c-1.88,3.4-10.17,4.89-12.63,4.72c-10.92-0.79-14.32-6.45-15.88-13.65
			c-0.09-0.39-0.6-0.49-0.83-0.16c-5.21,7.35-10.97,14.05-22.86,14.05c-17.11,0-28.42-7.62-28.42-34.77
			c0-29.2,16.2-42.55,44.76-42.55c6.09,0,8.71,1.65,13.06,2.81l12.43-2.81l0.02,46.29C583.29,123.15,589.84,120.54,593.63,121.33z
			 M562.5,78.6v-0.74c-2.59-0.74-5.55-1.11-8.14-1.11c-12.77,0-20.92,9.63-20.92,29.8c0,10.28,4.44,17.77,12.4,17.77
			C555.84,124.33,562.5,109.49,562.5,78.6z M558.12,53.87l-13.38,0.07l5.89-22.19l21.29-0.69
			C568.93,39.44,563.98,46.76,558.12,53.87z"/>
		<path class="st14" d="M683.73,121.08l-0.09,12.95c-1.73,1.46-9.54,5.41-11.86,5.27c-15.81-0.83-18.51-8.04-18.65-14.35l1.04-31.94
			c0.94-10.92-2.39-15.24-7.8-15.5c-7.84-0.38-17.27,13.66-17.27,39.03v20.68h-20.68V86.15c0-4.93-3.98-7.07-10.64-6.97V66.91
			c5.1-6.05,26.53-11.23,28.77,9.04c0.08,0.74,1.29,0.97,1.64,0.31c4.64-8.72,14.83-15.48,26.69-14.65
			c12.87,0.9,21.12,9.26,20.28,25.49l-1.77,22.05C672.96,118.5,675.11,122.04,683.73,121.08z"/>
	</g>
	<g>
		<path class="st14" d="M330.34,186.44l-0.21,5.51h-20.38v-35.3l7.05-0.51v30.31H330.34z"/>
		<path class="st14" d="M362.22,186.63l0.78-0.01l0.01,4.49c-1.77,1.66-4.57,1.35-5.24,1.25c-3.29-0.46-4.63-2.93-5.1-5.51
			c-1.85,3.5-4.74,5.61-8.6,5.61c-5.61,0-9.52-4.17-9.52-11.74c0-10.77,6.44-15.65,15.34-15.65c1.96,0,3.65,0.26,5.1,0.62l3.81-0.62
			v17.35c0,2.52,0.82,3.36,2.31,3.99C361.46,186.56,361.84,186.64,362.22,186.63z M352.16,170.79c-0.93-0.26-2.01-0.41-3.04-0.41
			c-4.27,0-7.62,2.99-7.62,9.94c0,4.84,1.65,7.46,4.43,7.46C349.33,187.78,352.11,183.82,352.16,170.79z"/>
		<path class="st14" d="M398.85,165.14v7.59c-0.72-0.26-2.9-0.31-3.78-0.31c-3.5,0-6.19,2.54-6.19,15.98v3.55h-6.64V174.4
			c0.06-2.72-0.82-3.2-2.28-3.64c-0.56-0.17-0.94-0.68-0.94-1.27l-0.02-2.45c-0.01-0.74,0.59-1.35,1.34-1.35h1.34
			c4.94,0.21,6.64,2.99,6.95,6.07l0.05,1.39c1.34-4.94,4.72-8.07,8.27-8.07C397.93,165.09,398.47,165.09,398.85,165.14z"/>
		<path class="st14" d="M423.42,185.46l0.88,4.32c-2.16,1.54-6.07,2.68-9.78,2.68c-7.52,0-12.1-4.79-12.1-12.51
			c0-8.49,5.56-14.26,13.23-14.26c5.51,0,9.58,2.93,9.58,8.08c0,5.25-4.22,8.44-11.43,8.44c-1.7,0-3.29-0.21-4.63-0.46
			c0.67,4.02,2.93,5.97,6.74,5.97C418.42,187.73,421.2,186.85,423.42,185.46z M409.05,177.69c1.24,0.26,2.73,0.41,3.86,0.41
			c3.81,0,5.97-1.49,5.97-4.27c0-2.57-1.7-3.86-3.86-3.86C411.83,169.97,409.52,172.95,409.05,177.69z"/>
		<path class="st14" d="M502.64,187.23v3.43c0,0.23-0.1,0.45-0.28,0.59c-0.76,0.58-2.43,1.42-4.69,1.11
			c-3.29-0.46-4.63-2.93-5.1-5.51c-1.85,3.5-4.74,5.61-8.6,5.61c-5.61,0-10.67-4.33-10.67-11.9c0-9.73,7.58-15.64,16.49-15.64
			c0.82,0,1.54,0.05,2.26,0.1v-8.74l6.64-0.42v26.54c-0.1,4.16,1.44,4.09,3.18,4.05C502.29,186.47,502.64,186.81,502.64,187.23z
			 M492.05,170.79c-0.93-0.26-2.01-0.41-3.04-0.41c-4.27,0-7.62,2.99-7.62,9.94c0,4.84,1.65,7.46,4.43,7.46
			C489.22,187.78,492,183.82,492.05,170.79z"/>
		<path class="st14" d="M627.85,187.23v3.43c0,0.23-0.1,0.45-0.28,0.59c-0.76,0.58-2.43,1.42-4.69,1.11
			c-3.29-0.46-4.63-2.93-5.1-5.51c-1.85,3.5-4.74,5.61-8.6,5.61c-5.61,0-10.67-4.33-10.67-11.9c0-9.73,7.58-15.64,16.49-15.64
			c0.82,0,1.54,0.05,2.26,0.1v-8.74l6.64-0.42v26.54c-0.1,4.16,1.44,4.09,3.18,4.05C627.51,186.47,627.85,186.81,627.85,187.23z
			 M617.27,170.79c-0.93-0.26-2.01-0.41-3.04-0.41c-4.27,0-7.62,2.99-7.62,9.94c0,4.84,1.65,7.46,4.43,7.46
			C614.43,187.78,617.22,183.82,617.27,170.79z"/>
		<path class="st14" d="M459.28,187.23v3.43c0,0.23-0.1,0.45-0.28,0.59c-0.76,0.58-2.43,1.42-4.69,1.11
			c-3.29-0.46-4.63-2.93-5.1-5.51c-1.85,3.5-4.74,5.61-8.6,5.61c-5.61,0-10.67-4.33-10.67-11.9c0-9.73,7.58-15.64,16.49-15.64
			c0.82,0,1.54,0.05,2.26,0.1v-8.74l6.64-0.42v26.54c-0.1,4.16,1.44,4.09,3.18,4.05C458.93,186.47,459.28,186.81,459.28,187.23z
			 M448.69,170.79c-0.93-0.26-2.01-0.41-3.04-0.41c-4.27,0-7.62,2.99-7.62,9.94c0,4.84,1.65,7.46,4.43,7.46
			C445.86,187.78,448.64,183.82,448.69,170.79z"/>
		<path class="st14" d="M527.73,185.46l0.88,4.32c-2.16,1.54-6.07,2.68-9.78,2.68c-7.52,0-12.1-4.79-12.1-12.51
			c0-8.49,5.56-14.26,13.23-14.26c5.51,0,9.58,2.93,9.58,8.08c0,5.25-4.22,8.44-11.43,8.44c-1.7,0-3.29-0.21-4.63-0.46
			c0.67,4.02,2.93,5.97,6.74,5.97C522.74,187.73,525.52,186.85,527.73,185.46z M513.37,177.69c1.24,0.26,2.73,0.41,3.86,0.41
			c3.81,0,5.97-1.49,5.97-4.27c0-2.57-1.7-3.86-3.86-3.86C516.15,169.97,513.83,172.95,513.37,177.69z"/>
		<path class="st14" d="M564.72,190.51c-2.06,1.08-4.68,1.96-7.57,1.96c-8.29,0-8.29-7.1-8.29-9.16v-12.87h-3.4v-4.22h0.35
			c2.17,0,4.04-1.51,4.5-3.63l0.4-1.86c0.31-1.43,1.53-2.48,2.99-2.57l1.8-0.11V165h8.65l-1.03,5.43h-7.62v12.82
			c0,2.16,0.77,3.96,3.4,3.96c1.6,0,3.19-0.67,4.38-1.29L564.72,190.51z"/>
		<path class="st14" d="M579.99,192.46c-7.31,0-11.89-4.38-11.89-12.41c0-8.7,5.35-14.36,13.69-14.36c7.36,0,11.84,4.38,11.84,12.36
			C593.63,186.75,588.28,192.46,579.99,192.46z M581.33,170.43c-3.76,0-6.28,3.29-6.28,9.27c0,5.77,2.32,8.03,5.35,8.03
			c3.76,0,6.28-3.29,6.28-9.32C586.68,172.7,584.37,170.43,581.33,170.43z"/>
		<path class="st14" d="M644.38,192.31c-7.31,0-11.89-4.38-11.89-12.41c0-8.7,5.35-14.36,13.69-14.36c7.36,0,11.84,4.38,11.84,12.36
			C658.03,186.59,652.67,192.31,644.38,192.31z M645.72,170.28c-3.76,0-6.28,3.29-6.28,9.27c0,5.77,2.32,8.03,5.35,8.03
			c3.76,0,6.28-3.29,6.28-9.32C651.08,172.54,648.76,170.28,645.72,170.28z"/>
		<path class="st14" d="M682.39,167.19l-1.03,5.05c-2.21-1.34-4.99-2.16-6.95-2.16c-2.21,0-3.45,1.13-3.45,2.63
			c0,1.96,2.11,2.99,4.84,4.12c3.19,1.34,7.67,3.04,7.67,7.88c0,4.32-3.5,7.77-10.6,7.77c-2.88,0-6.38-0.62-9.06-1.7l1.03-5.1
			c3.04,1.54,5.92,2.42,8.08,2.42c2.68,0,3.86-1.24,3.86-2.83c0-2.32-2.73-3.29-5.46-4.43c-3.04-1.24-7.05-3.09-7.05-7.72
			c0-4.53,3.86-7.41,9.88-7.41C676.93,165.69,680.07,166.31,682.39,167.19z"/>
	</g>
</g>
</svg>
