<?xml version="1.0" encoding="utf-8"?>
<!-- Generator: Adobe Illustrator 28.0.0, SVG Export Plug-In . SVG Version: 6.00 Build 0)  -->
<svg version="1.1" id="Capa_1" xmlns="http://www.w3.org/2000/svg" xmlns:xlink="http://www.w3.org/1999/xlink" x="0px" y="0px"
	 viewBox="0 0 800 323.41" style="enable-background:new 0 0 800 323.41;" xml:space="preserve">
<style type="text/css">
	.st0{fill:#44A4DD;}
	.st1{fill-rule:evenodd;clip-rule:evenodd;fill:#C92329;}
	.st2{fill:#45A7DE;}
	.st3{fill-rule:evenodd;clip-rule:evenodd;fill:#00368A;}
	.st4{fill:#377EFC;}
	.st5{fill:#45AE37;}
	.st6{fill:#EE3C18;}
	.st7{fill:#F6BA0C;}
	.st8{fill:#262F36;}
	.st9{clip-path:url(#SVGID_00000131358816140760748440000001257609281666243483_);}
	.st10{clip-path:url(#SVGID_00000052072669486860942490000013325194353306248336_);}
	
		.st11{clip-path:url(#SVGID_00000097480087545055579000000009638388391469633680_);fill:url(#SVGID_00000177447711857298553590000007035109016951087793_);}
	.st12{fill-rule:evenodd;clip-rule:evenodd;fill:#5CD760;}
	.st13{fill:#5CD760;}
	.st14{fill:#AF0014;}
	.st15{fill:#252F3E;}
	.st16{fill-rule:evenodd;clip-rule:evenodd;fill:#FF9900;}
	.st17{fill:#497F8F;}
	.st18{fill:#209BE4;}
	.st19{fill:#005F9F;}
	.st20{fill:#F57917;}
</style>
<g>
	<g>
		<g>
			<path class="st12" d="M142.86,179.53c-2.22-1.22-13.15-7.12-15.2-7.95c-2.05-0.83-3.55-1.27-5.15,0.95
				c-1.59,2.2-6.13,7.14-7.5,8.61c-1.38,1.47-2.71,1.6-4.94,0.38c-2.22-1.22-9.43-3.89-17.79-11.93
				c-6.51-6.26-10.78-13.84-12.01-16.16c-1.24-2.32-0.01-3.5,1.17-4.58c1.06-0.98,2.37-2.57,3.55-3.85c1.17-1.28,1.59-2.21,2.4-3.69
				c0.81-1.48,0.48-2.82-0.04-3.97c-0.52-1.15-4.64-12.47-6.35-17.08c-1.72-4.6-3.63-3.92-4.96-3.97c-1.32-0.04-2.83-0.29-4.33-0.35
				c-1.52-0.06-3.99,0.42-6.15,2.61c-2.16,2.19-8.23,7.45-8.64,18.6c-0.42,11.15,7.3,22.22,8.37,23.77
				c1.08,1.56,14.73,25.72,37.41,35.66c22.7,9.94,22.82,6.91,26.98,6.69c4.17-0.22,13.61-4.98,15.7-10.2
				c2.09-5.22,2.25-9.75,1.72-10.72C146.57,181.37,145.08,180.74,142.86,179.53L142.86,179.53z M101.24,233.25
				c-15,0-28.98-4.5-40.64-12.22l-28.4,9.09l9.23-27.44c-8.84-12.18-14.07-27.14-14.07-43.32c0-40.75,33.14-73.89,73.88-73.89
				c40.75,0,73.89,33.14,73.89,73.89C175.13,200.1,141.98,233.25,101.24,233.25L101.24,233.25z M101.24,70.61
				c-49.01,0-88.75,39.74-88.75,88.76c0,16.77,4.66,32.45,12.74,45.83L9.2,252.81l49.14-15.73c12.72,7.03,27.34,11.04,42.9,11.04
				c49.03,0,88.76-39.74,88.76-88.76C190,110.34,150.26,70.61,101.24,70.61L101.24,70.61z"/>
		</g>
		<g>
			<path class="st13" d="M311.58,204.15H290.7l-11.4-48.64c-1.39-5.73-2.57-11.72-3.52-17.96c-0.96,5.21-1.73,9.18-2.33,11.91
				c-0.6,2.73-4.83,20.96-12.71,54.7h-20.89l-21.66-84.09h17.84l12.17,54.31l2.75,13.13c1.11-5.53,2.2-10.81,3.25-15.85
				c1.05-5.03,5.02-22.23,11.91-51.6h19.69l10.62,44.76c0.84,3.34,2.25,10.9,4.24,22.68l1.49-6.92l3.16-13.73l10.15-46.79h17.84
				L311.58,204.15z"/>
			<path class="st13" d="M354.7,152.47c2.27-4.93,5.11-8.51,8.53-10.74c3.42-2.23,7.5-3.34,12.23-3.34c6.84,0,12.1,2.11,15.76,6.33
				c3.66,4.22,5.49,10.38,5.49,18.5v40.94h-16.71v-36.17c0-11.34-3.84-17.01-11.52-17.01c-4.06,0-7.33,1.74-9.82,5.22
				c-2.49,3.48-3.73,7.95-3.73,13.4v34.56h-16.77v-88.57h16.77v24.17c0,4.34-0.16,8.57-0.48,12.71H354.7z"/>
			<path class="st13" d="M423.96,205.35c-6.25,0-11.12-1.7-14.62-5.1c-3.5-3.4-5.25-8.19-5.25-14.35c0-6.68,2.18-11.78,6.53-15.28
				c4.36-3.5,10.67-5.29,18.95-5.37l13.91-0.24v-3.28c0-4.22-0.74-7.35-2.21-9.4c-1.47-2.05-3.88-3.07-7.22-3.07
				c-3.1,0-5.38,0.71-6.83,2.12c-1.45,1.41-2.36,3.75-2.72,7.01l-17.49-0.84c1.07-6.29,3.95-11.05,8.62-14.29
				c4.67-3.24,11.05-4.86,19.13-4.86c8.16,0,14.44,2.01,18.86,6.03c4.42,4.02,6.62,9.73,6.62,17.13v23.51
				c0,3.62,0.41,6.12,1.22,7.49c0.82,1.37,2.18,2.06,4.09,2.06c1.27,0,2.51-0.12,3.7-0.36v9.07c-1,0.24-1.89,0.46-2.69,0.66
				c-0.8,0.2-1.59,0.36-2.39,0.48c-0.8,0.12-1.64,0.22-2.54,0.3c-0.9,0.08-1.94,0.12-3.13,0.12c-4.22,0-7.33-1.03-9.34-3.1
				c-2.01-2.07-3.21-5.11-3.61-9.13h-0.36C440.52,201.11,433.43,205.35,423.96,205.35z M443.48,174.25l-8.59,0.12
				c-3.9,0.16-6.66,0.59-8.3,1.28c-1.63,0.7-2.88,1.76-3.73,3.19c-0.86,1.43-1.28,3.34-1.28,5.73c0,3.06,0.71,5.34,2.12,6.83
				c1.41,1.49,3.29,2.24,5.64,2.24c2.63,0,5.02-0.72,7.19-2.15c2.17-1.43,3.87-3.41,5.1-5.94c1.23-2.53,1.85-5.2,1.85-8.03V174.25z"
				/>
			<path class="st13" d="M489.76,205.23c-4.93,0-8.73-1.34-11.4-4.03c-2.67-2.68-4-6.75-4-12.2v-38.08h-8.18v-11.34h9.01l5.25-15.16
				h10.5v15.16h12.23v11.34h-12.23v33.54c0,3.14,0.6,5.46,1.79,6.95c1.19,1.49,3.04,2.24,5.55,2.24c1.31,0,3.18-0.28,5.61-0.84
				v10.38C499.77,204.55,495.05,205.23,489.76,205.23z"/>
			<path class="st13" d="M564.57,185.29c0,6.25-2.56,11.15-7.67,14.71c-5.11,3.56-12.19,5.34-21.22,5.34
				c-8.87,0-15.67-1.4-20.38-4.21c-4.72-2.8-7.85-7.17-9.4-13.1l14.74-2.21c0.84,3.06,2.28,5.23,4.33,6.5
				c2.05,1.27,5.62,1.91,10.71,1.91c4.69,0,8.12-0.6,10.27-1.79c2.15-1.19,3.22-3.06,3.22-5.61c0-2.07-0.87-3.71-2.6-4.92
				c-1.73-1.21-4.67-2.24-8.8-3.07c-9.47-1.87-15.86-3.61-19.16-5.22c-3.3-1.61-5.82-3.7-7.55-6.27c-1.73-2.57-2.6-5.72-2.6-9.46
				c0-6.17,2.38-10.97,7.13-14.41c4.75-3.44,11.49-5.16,20.2-5.16c7.68,0,13.85,1.49,18.53,4.48c4.67,2.98,7.59,7.3,8.74,12.95
				l-14.86,1.55c-0.48-2.63-1.65-4.59-3.52-5.88c-1.87-1.29-4.83-1.94-8.89-1.94c-3.98,0-6.96,0.51-8.95,1.52
				c-1.99,1.01-2.98,2.71-2.98,5.1c0,1.87,0.77,3.35,2.3,4.45c1.53,1.09,4.11,2,7.73,2.71c5.05,1.03,9.54,2.1,13.46,3.19
				c3.92,1.09,7.06,2.4,9.43,3.91c2.37,1.51,4.26,3.45,5.67,5.82C563.87,178.56,564.57,181.59,564.57,185.29z"/>
			<path class="st13" d="M633.42,204.15l-7.46-21.49h-32.05l-7.46,21.49h-17.61l30.68-84.09h20.77l30.56,84.09H633.42z
				 M609.9,133.01l-0.36,1.31c-0.4,1.43-0.88,3.06-1.43,4.89c-0.56,1.83-3.98,11.9-10.26,30.2h24.17l-8.3-24.17l-2.57-8.12
				L609.9,133.01z"/>
			<path class="st13" d="M719.93,171.57c0,10.78-2.16,19.11-6.47,24.98c-4.32,5.87-10.41,8.8-18.29,8.8
				c-4.54,0-8.49-0.99-11.85-2.95c-3.36-1.97-5.94-4.8-7.73-8.5h-0.36c0.24,1.19,0.36,4.81,0.36,10.86v24.77h-16.77v-75.08
				c0-6.09-0.16-11.04-0.48-14.86h16.29c0.2,0.72,0.37,2.13,0.51,4.24c0.14,2.11,0.21,4.2,0.21,6.27h0.24
				c3.78-7.92,10.66-11.88,20.65-11.88c7.52,0,13.35,2.89,17.49,8.68C717.86,152.68,719.93,160.9,719.93,171.57z M702.44,171.57
				c0-14.48-4.44-21.72-13.31-21.72c-4.46,0-7.87,1.95-10.23,5.85c-2.37,3.9-3.55,9.35-3.55,16.35c0,6.96,1.18,12.34,3.55,16.14
				c2.37,3.8,5.74,5.7,10.12,5.7C697.96,193.89,702.44,186.45,702.44,171.57z"/>
			<path class="st13" d="M790.8,171.57c0,10.78-2.16,19.11-6.47,24.98c-4.32,5.87-10.41,8.8-18.29,8.8c-4.54,0-8.49-0.99-11.85-2.95
				c-3.36-1.97-5.94-4.8-7.73-8.5h-0.36c0.24,1.19,0.36,4.81,0.36,10.86v24.77h-16.77v-75.08c0-6.09-0.16-11.04-0.48-14.86h16.29
				c0.2,0.72,0.37,2.13,0.51,4.24c0.14,2.11,0.21,4.2,0.21,6.27h0.24c3.78-7.92,10.66-11.88,20.65-11.88
				c7.52,0,13.35,2.89,17.49,8.68C788.73,152.68,790.8,160.9,790.8,171.57z M773.31,171.57c0-14.48-4.44-21.72-13.31-21.72
				c-4.46,0-7.87,1.95-10.23,5.85c-2.37,3.9-3.55,9.35-3.55,16.35c0,6.96,1.18,12.34,3.55,16.14c2.37,3.8,5.74,5.7,10.12,5.7
				C768.84,193.89,773.31,186.45,773.31,171.57z"/>
		</g>
	</g>
</g>
</svg>
